<?xml version="1.0" encoding="utf-8"?>
<!-- Generator: Adobe Illustrator 14.0.0, SVG Export Plug-In . SVG Version: 6.00 Build 43363)  -->
<!DOCTYPE svg PUBLIC "-//W3C//DTD SVG 1.1//EN" "http://www.w3.org/Graphics/SVG/1.1/DTD/svg11.dtd">
<svg version="1.1" id="Layer_1" xmlns="http://www.w3.org/2000/svg" xmlns:xlink="http://www.w3.org/1999/xlink" x="0px" y="0px"
	 width="841.89px" height="1190.55px" viewBox="0 0 841.89 1190.55" enable-background="new 0 0 841.89 1190.55"
	 xml:space="preserve">
<rect y="0" fill="#FFFFFF" width="840.776" height="1190.55"/>
<g>
	<defs>
		<rect id="SVGID_1_" y="0.001" width="841.89" height="1190.549"/>
	</defs>
	<clipPath id="SVGID_2_">
		<use xlink:href="#SVGID_1_"  overflow="visible"/>
	</clipPath>
	<path clip-path="url(#SVGID_2_)" fill="#E61F42" d="M833.848,50.65c0,229.018-185.662,414.68-414.672,414.68
		C190.151,465.33,4.49,279.668,4.49,50.65c0-229.023,185.661-414.684,414.686-414.684
		C648.186-364.034,833.848-178.373,833.848,50.65"/>
	<path clip-path="url(#SVGID_2_)" fill="#FFFFFF" d="M434.547-39.083c-5.263-0.209-10.291-0.182-15.379-0.215
		c-5.086,0.033-10.113,0.006-15.369,0.215C141.795-28.755,103.098,162.95,103.098,162.95s75.978,224.149,139.371,275.565
		c36.48,29.601,129.258,78.049,176.699,81.762c47.447-3.713,140.217-52.161,176.703-81.762
		c63.392-51.416,139.367-275.565,139.367-275.565S696.541-28.755,434.547-39.083"/>
	<path clip-path="url(#SVGID_2_)" fill="#FFFFFF" d="M344.551,305.302c0,0-29.795,41.635-66.539,41.635
		c-36.752,0-66.537-41.635-66.537-41.635s29.785-38.198,66.537-38.198C314.756,267.104,344.551,305.302,344.551,305.302"/>
	<path clip-path="url(#SVGID_2_)" fill="#E61F42" d="M-15.516,216.47c157.057,9.043,207.701-125.367,207.701-125.367
		s104.948,80.444,265.576,125.805c209.182,59.071,399.644-87.259,399.644-87.259S699.849,67.977,653.304-180.758
		c-153.992-46.14-371.927,34.355-498.056,94.805C29.122-25.502,76.125,174.461-15.516,216.47"/>
	<path clip-path="url(#SVGID_2_)" fill="#FFFFFF" d="M493.779,305.302c0,0,29.798,41.635,66.539,41.635
		c36.754,0,66.548-41.635,66.548-41.635s-29.794-38.198-66.548-38.198C523.577,267.104,493.779,305.302,493.779,305.302"/>
	<path clip-path="url(#SVGID_2_)" d="M519.536,289.163c0-3.153,0.397-6.222,1.075-9.176c9.535-10.717,23.492-17.512,39.106-17.512
		c16.502,0,31.173,7.59,40.695,19.382c0.432,2.374,0.69,4.811,0.69,7.306c0,22.529-18.263,40.786-40.787,40.786
		C537.799,329.949,519.536,311.692,519.536,289.163"/>
	<path clip-path="url(#SVGID_2_)" d="M628.306,308.462c0,0-20.219-31.433-61.569-39.315c-41.356-7.874-72.957,36.154-72.957,36.154
		s25.756-44.986,55.006-52.558c9.375-2.43,21.007-1.277,21.007-1.277s17.041-7.017,19.625-5.432c2.6,1.577-3.24,9.459-3.24,9.459
		s19.24-7.75,20.478-5.041c1.235,2.708-5.551,12.181-5.551,12.181s23.937-14.564,25.762-10.724
		c1.812,3.848-10.584,16.779-10.584,16.779s39.14-18.459,40.903-11.311c1.775,7.144-27.241,28.456-27.241,28.456
		s49.967-19.716,51.203-12.282c1.229,7.437-53.371,38.236-53.371,38.236L628.306,308.462z"/>
	<path clip-path="url(#SVGID_2_)" fill="#FFFFFF" d="M547.931,289.384c0,5.849-4.746,10.598-10.59,10.598
		c-5.846,0-10.59-4.749-10.59-10.598c0-5.847,4.744-10.584,10.59-10.584C543.185,278.8,547.931,283.537,547.931,289.384"/>
	<path clip-path="url(#SVGID_2_)" d="M210.029,308.462c0,0,20.215-31.433,61.573-39.315c41.356-7.874,72.948,36.154,72.948,36.154
		s-25.757-44.986-55.003-52.558c-9.375-2.43-21.01-1.277-21.01-1.277s-17.033-7.017-19.623-5.432
		c-2.59,1.577,3.242,9.459,3.242,9.459s-19.244-7.75-20.48-5.041c-1.237,2.708,5.548,12.181,5.548,12.181
		s-23.939-14.564-25.75-10.724c-1.82,3.848,10.576,16.779,10.576,16.779s-39.134-18.459-40.904-11.311
		c-1.77,7.144,27.242,28.456,27.242,28.456s-49.965-19.716-51.195-12.282c-1.236,7.437,53.363,38.236,53.363,38.236L210.029,308.462
		z"/>
	<path clip-path="url(#SVGID_2_)" d="M318.793,289.163c0-3.153-0.396-6.222-1.074-9.176c-9.532-10.717-23.494-17.512-39.104-17.512
		c-16.501,0-31.177,7.59-40.703,19.382c-0.427,2.374-0.687,4.811-0.687,7.306c0,22.529,18.258,40.786,40.787,40.786
		C300.534,329.949,318.793,311.692,318.793,289.163"/>
	<path clip-path="url(#SVGID_2_)" fill="#FFFFFF" d="M265.389,289.389c0,5.849-4.743,10.59-10.588,10.59
		c-5.849,0-10.592-4.741-10.592-10.59s4.743-10.59,10.592-10.59C260.646,278.799,265.389,283.54,265.389,289.389"/>
	<path clip-path="url(#SVGID_2_)" d="M403.047,363.456c4.502-2.693,9.822-4.254,15.545-4.254c5.719,0,11.037,1.561,15.551,4.254
		c3.369,0.515,6.567,1.161,9.508,1.958c-5.249-7.977-14.481-13.325-25.059-13.325c-10.588,0-19.811,5.348-25.059,13.325
		C396.471,364.617,399.672,363.971,403.047,363.456"/>
	<rect x="-1.116" y="461.543" clip-path="url(#SVGID_2_)" fill="#E61F42" width="841.891" height="737.008"/>
</g>
<g>
	<path fill="#FFFFFF" d="M113.232,1110.635c-0.316,0.375-0.571,0.615-0.765,0.721s-0.431,0.158-0.712,0.158
		c-0.551,0-0.993-0.185-1.327-0.554s-0.501-0.981-0.501-1.837v-2.426c0-0.867,0.167-1.485,0.501-1.854s0.776-0.554,1.327-0.554
		c0.422,0,0.776,0.111,1.063,0.334s0.507,0.595,0.659,1.116s0.311,0.876,0.475,1.063c0.34,0.363,0.943,0.732,1.811,1.107
		s1.816,0.562,2.848,0.562c1.605,0,2.924-0.375,3.955-1.125c0.656-0.457,0.984-1.02,0.984-1.688c0-0.445-0.158-0.864-0.475-1.257
		s-0.832-0.718-1.547-0.976c-0.469-0.176-1.518-0.416-3.146-0.721c-1.969-0.363-3.457-0.803-4.465-1.318s-1.805-1.242-2.391-2.18
		s-0.879-1.951-0.879-3.041c0-1.723,0.721-3.231,2.162-4.526s3.316-1.942,5.625-1.942c0.926,0,1.784,0.103,2.575,0.308
		s1.509,0.519,2.153,0.94c0.469-0.457,0.938-0.686,1.406-0.686c0.527,0,0.958,0.185,1.292,0.554s0.501,0.981,0.501,1.837v2.707
		c0,0.867-0.167,1.485-0.501,1.854s-0.765,0.554-1.292,0.554c-0.445,0-0.832-0.135-1.16-0.404c-0.258-0.199-0.451-0.598-0.58-1.195
		s-0.293-1.025-0.492-1.283c-0.34-0.445-0.85-0.82-1.529-1.125s-1.465-0.457-2.355-0.457c-1.301,0-2.329,0.302-3.085,0.905
		s-1.134,1.233-1.134,1.89c0,0.445,0.155,0.876,0.466,1.292s0.765,0.741,1.362,0.976c0.398,0.164,1.521,0.428,3.366,0.791
		s3.264,0.762,4.254,1.195s1.813,1.113,2.47,2.039s0.984,2.027,0.984,3.305c0,1.781-0.627,3.205-1.881,4.271
		c-1.664,1.406-3.785,2.109-6.363,2.109c-0.996,0-1.966-0.12-2.909-0.36S114.123,1111.116,113.232,1110.635z"/>
	<path fill="#FFFFFF" d="M141.884,1095.588v12.357h4.324c0.867,0,1.485,0.167,1.854,0.501s0.554,0.771,0.554,1.31
		c0,0.527-0.185,0.958-0.554,1.292s-0.987,0.501-1.854,0.501h-12.252c-0.867,0-1.485-0.167-1.854-0.501s-0.554-0.771-0.554-1.31
		c0-0.527,0.185-0.958,0.554-1.292s0.987-0.501,1.854-0.501h4.324v-8.754h-2.9c-0.855,0-1.471-0.167-1.846-0.501
		s-0.562-0.771-0.562-1.31c0-0.527,0.185-0.958,0.554-1.292s0.987-0.501,1.854-0.501H141.884z M141.392,1088.75v3.814h-4.289v-3.814
		H141.392z"/>
	<path fill="#FFFFFF" d="M156.14,1095.588v1.02c0.586-0.574,1.116-0.97,1.591-1.187s1.022-0.325,1.644-0.325
		c0.527,0,1.049,0.129,1.564,0.387s1.02,0.645,1.512,1.16c0.621-0.516,1.251-0.899,1.89-1.151s1.292-0.378,1.96-0.378
		c1.336,0,2.42,0.357,3.252,1.072c1.102,0.938,1.652,2.168,1.652,3.691v8.068c0.75,0,1.307,0.17,1.67,0.51s0.545,0.773,0.545,1.301
		s-0.182,0.958-0.545,1.292s-0.979,0.501-1.846,0.501h-3.428v-11.373c0-0.551-0.1-0.932-0.299-1.143s-0.504-0.316-0.914-0.316
		c-0.398,0-0.768,0.105-1.107,0.316c-0.434,0.293-0.961,0.844-1.582,1.652v7.26c0.75,0,1.307,0.17,1.67,0.51
		s0.545,0.773,0.545,1.301s-0.182,0.958-0.545,1.292s-0.979,0.501-1.846,0.501h-3.428v-11.373c0-0.539-0.103-0.917-0.308-1.134
		s-0.513-0.325-0.923-0.325c-0.422,0-0.838,0.132-1.248,0.396s-0.902,0.788-1.477,1.573v7.26c0.75,0,1.31,0.17,1.679,0.51
		s0.554,0.773,0.554,1.301s-0.185,0.958-0.554,1.292s-0.987,0.501-1.854,0.501h-3.252c-0.867,0-1.485-0.167-1.854-0.501
		s-0.554-0.771-0.554-1.31c0-0.527,0.182-0.958,0.545-1.292s0.926-0.501,1.688-0.501v-8.754c-0.762,0-1.324-0.17-1.688-0.51
		s-0.545-0.773-0.545-1.301s0.185-0.958,0.554-1.292s0.987-0.501,1.854-0.501H156.14z"/>
	<path fill="#FFFFFF" d="M178.833,1109.563v5.906h2.162c0.867,0,1.485,0.167,1.854,0.501s0.554,0.771,0.554,1.31
		c0,0.527-0.185,0.958-0.554,1.292s-0.987,0.501-1.854,0.501h-6.381c-0.867,0-1.485-0.167-1.854-0.501s-0.554-0.765-0.554-1.292
		c0-0.539,0.188-0.976,0.562-1.31s0.99-0.501,1.846-0.501h0.615v-16.277h-0.615c-0.867,0-1.485-0.167-1.854-0.501
		s-0.554-0.771-0.554-1.31c0-0.527,0.185-0.958,0.554-1.292s0.987-0.501,1.854-0.501h4.219v1.23
		c0.844-0.574,1.717-1.002,2.619-1.283s1.828-0.422,2.777-0.422c2.461,0,4.559,0.835,6.293,2.505s2.602,3.583,2.602,5.739
		c0,2.379-1.025,4.342-3.076,5.889c-1.711,1.289-3.639,1.934-5.783,1.934c-0.926,0-1.84-0.135-2.742-0.404
		S179.724,1110.102,178.833,1109.563z M189.521,1103.375c0-0.504-0.199-1.146-0.598-1.925s-1.011-1.43-1.837-1.951
		s-1.796-0.782-2.909-0.782c-1.793,0-3.217,0.674-4.271,2.021c-0.715,0.926-1.072,1.816-1.072,2.672
		c0,0.961,0.513,1.896,1.538,2.804s2.294,1.362,3.806,1.362c1.523,0,2.795-0.451,3.814-1.354S189.521,1104.372,189.521,1103.375z"/>
	<path fill="#FFFFFF" d="M206.712,1088.75v19.195h4.324c0.867,0,1.485,0.167,1.854,0.501s0.554,0.771,0.554,1.31
		c0,0.527-0.185,0.958-0.554,1.292s-0.987,0.501-1.854,0.501h-12.252c-0.867,0-1.485-0.167-1.854-0.501s-0.554-0.771-0.554-1.31
		c0-0.527,0.185-0.958,0.554-1.292s0.987-0.501,1.854-0.501h4.324v-15.592h-2.9c-0.855,0-1.471-0.167-1.846-0.501
		s-0.562-0.771-0.562-1.31c0-0.527,0.185-0.958,0.554-1.292s0.987-0.501,1.854-0.501H206.712z"/>
	<path fill="#FFFFFF" d="M235.558,1105.397h-14.783c0.375,0.938,1.04,1.693,1.995,2.268s2.247,0.861,3.876,0.861
		c1.336,0,3.111-0.287,5.326-0.861c0.914-0.234,1.547-0.352,1.898-0.352c0.48,0,0.885,0.17,1.213,0.51s0.492,0.768,0.492,1.283
		c0,0.469-0.176,0.867-0.527,1.195c-0.469,0.434-1.611,0.847-3.428,1.239s-3.562,0.589-5.238,0.589
		c-2.883,0-5.188-0.814-6.917-2.443s-2.593-3.633-2.593-6.012c0-2.531,0.935-4.591,2.804-6.179s4.022-2.382,6.46-2.382
		c1.465,0,2.81,0.258,4.034,0.773s2.136,1.072,2.733,1.67c0.844,0.867,1.541,1.939,2.092,3.217c0.375,0.891,0.562,1.922,0.562,3.094
		V1105.397z M231.568,1101.793c-0.551-1.031-1.271-1.802-2.162-2.312s-1.951-0.765-3.182-0.765c-1.219,0-2.273,0.255-3.164,0.765
		s-1.617,1.28-2.18,2.312H231.568z"/>
	<path fill="#FFFFFF" d="M271.505,1095.588v12.357h4.324c0.867,0,1.485,0.167,1.854,0.501s0.554,0.771,0.554,1.31
		c0,0.527-0.185,0.958-0.554,1.292s-0.987,0.501-1.854,0.501h-12.252c-0.867,0-1.485-0.167-1.854-0.501s-0.554-0.771-0.554-1.31
		c0-0.527,0.185-0.958,0.554-1.292s0.987-0.501,1.854-0.501h4.324v-8.754h-2.9c-0.855,0-1.471-0.167-1.846-0.501
		s-0.562-0.771-0.562-1.31c0-0.527,0.185-0.958,0.554-1.292s0.987-0.501,1.854-0.501H271.505z M271.013,1088.75v3.814h-4.289v-3.814
		H271.013z"/>
	<path fill="#FFFFFF" d="M295.218,1099.807c-0.586-0.363-1.201-0.636-1.846-0.817s-1.318-0.272-2.021-0.272
		c-1.395,0-2.502,0.229-3.322,0.686c-0.363,0.199-0.545,0.416-0.545,0.65c0,0.27,0.246,0.533,0.738,0.791
		c0.375,0.188,1.213,0.369,2.514,0.545c2.391,0.328,4.055,0.656,4.992,0.984c1.23,0.434,2.18,1.078,2.848,1.934
		s1.002,1.758,1.002,2.707c0,1.289-0.568,2.367-1.705,3.234c-1.629,1.254-3.744,1.881-6.346,1.881c-1.043,0-2.007-0.091-2.892-0.272
		s-1.696-0.448-2.435-0.8c-0.176,0.152-0.363,0.27-0.562,0.352s-0.404,0.123-0.615,0.123c-0.562,0-1.011-0.185-1.345-0.554
		s-0.501-0.987-0.501-1.854v-1.213c0-0.867,0.167-1.485,0.501-1.854s0.771-0.554,1.31-0.554c0.434,0,0.797,0.12,1.09,0.36
		s0.521,0.653,0.686,1.239c0.551,0.469,1.213,0.823,1.986,1.063s1.664,0.36,2.672,0.36c1.652,0,2.936-0.258,3.85-0.773
		c0.434-0.258,0.65-0.527,0.65-0.809c0-0.469-0.311-0.855-0.932-1.16s-1.904-0.562-3.85-0.773c-2.895-0.305-4.828-0.891-5.801-1.758
		c-0.973-0.855-1.459-1.91-1.459-3.164c0-1.289,0.545-2.361,1.635-3.217c1.477-1.172,3.41-1.758,5.801-1.758
		c0.832,0,1.632,0.079,2.399,0.237s1.503,0.401,2.206,0.729c0.223-0.164,0.431-0.287,0.624-0.369s0.372-0.123,0.536-0.123
		c0.492,0,0.902,0.185,1.23,0.554s0.492,0.987,0.492,1.854v0.879c0,0.785-0.094,1.318-0.281,1.6
		c-0.375,0.539-0.885,0.809-1.529,0.809c-0.434,0-0.814-0.135-1.143-0.404S295.312,1100.252,295.218,1099.807z"/>
	<path fill="#FFFFFF" d="M329.988,1088.75v8.086c0.879-0.574,1.772-1.005,2.681-1.292s1.825-0.431,2.751-0.431
		c2.496,0,4.611,0.861,6.346,2.584s2.602,3.803,2.602,6.24c0,2.332-0.826,4.28-2.479,5.845s-3.832,2.347-6.539,2.347
		c-0.961,0-1.887-0.123-2.777-0.369s-1.752-0.609-2.584-1.09v0.879h-4.219c-0.867,0-1.485-0.167-1.854-0.501
		s-0.554-0.771-0.554-1.31c0-0.527,0.188-0.958,0.562-1.292s0.99-0.501,1.846-0.501h0.615v-15.592h-0.615
		c-0.867,0-1.485-0.167-1.854-0.501s-0.554-0.771-0.554-1.31c0-0.527,0.185-0.958,0.554-1.292s0.987-0.501,1.854-0.501H329.988z
		 M340.763,1104.043c0-1.488-0.521-2.748-1.564-3.779s-2.32-1.547-3.832-1.547c-1.5,0-2.771,0.516-3.814,1.547
		s-1.564,2.273-1.564,3.727c0,1.324,0.469,2.411,1.406,3.261s2.262,1.274,3.973,1.274s3.038-0.425,3.981-1.274
		S340.763,1105.333,340.763,1104.043z"/>
	<path fill="#FFFFFF" d="M365.179,1105.397h-14.783c0.375,0.938,1.04,1.693,1.995,2.268s2.247,0.861,3.876,0.861
		c1.336,0,3.111-0.287,5.326-0.861c0.914-0.234,1.547-0.352,1.898-0.352c0.48,0,0.885,0.17,1.213,0.51s0.492,0.768,0.492,1.283
		c0,0.469-0.176,0.867-0.527,1.195c-0.469,0.434-1.611,0.847-3.428,1.239s-3.562,0.589-5.238,0.589
		c-2.883,0-5.188-0.814-6.917-2.443s-2.593-3.633-2.593-6.012c0-2.531,0.935-4.591,2.804-6.179s4.022-2.382,6.46-2.382
		c1.465,0,2.81,0.258,4.034,0.773s2.136,1.072,2.733,1.67c0.844,0.867,1.541,1.939,2.092,3.217c0.375,0.891,0.562,1.922,0.562,3.094
		V1105.397z M361.189,1101.793c-0.551-1.031-1.271-1.802-2.162-2.312s-1.951-0.765-3.182-0.765c-1.219,0-2.273,0.255-3.164,0.765
		s-1.617,1.28-2.18,2.312H361.189z"/>
	<path fill="#FFFFFF" d="M376.851,1099.192v7.225c0,0.773,0.158,1.283,0.475,1.529c0.492,0.387,1.371,0.58,2.637,0.58
		c1.84,0,3.539-0.393,5.098-1.178c0.598-0.305,1.066-0.457,1.406-0.457c0.469,0,0.876,0.176,1.222,0.527s0.519,0.779,0.519,1.283
		c0,0.469-0.188,0.873-0.562,1.213c-0.574,0.551-1.708,1.058-3.401,1.521s-3.12,0.694-4.28,0.694c-2.238,0-3.917-0.483-5.036-1.45
		s-1.679-2.153-1.679-3.56v-7.928h-1.301c-0.867,0-1.485-0.167-1.854-0.501s-0.554-0.771-0.554-1.31
		c0-0.527,0.185-0.958,0.554-1.292s0.987-0.501,1.854-0.501h1.301v-3.252c0-0.867,0.167-1.485,0.501-1.854s0.771-0.554,1.31-0.554
		c0.527,0,0.958,0.185,1.292,0.554s0.501,0.987,0.501,1.854v3.252h6.662c0.867,0,1.485,0.167,1.854,0.501s0.554,0.771,0.554,1.31
		c0,0.527-0.185,0.958-0.554,1.292s-0.987,0.501-1.854,0.501H376.851z"/>
	<path fill="#FFFFFF" d="M398.455,1099.192v7.225c0,0.773,0.158,1.283,0.475,1.529c0.492,0.387,1.371,0.58,2.637,0.58
		c1.84,0,3.539-0.393,5.098-1.178c0.598-0.305,1.066-0.457,1.406-0.457c0.469,0,0.876,0.176,1.222,0.527s0.519,0.779,0.519,1.283
		c0,0.469-0.188,0.873-0.562,1.213c-0.574,0.551-1.708,1.058-3.401,1.521s-3.12,0.694-4.28,0.694c-2.238,0-3.917-0.483-5.036-1.45
		s-1.679-2.153-1.679-3.56v-7.928h-1.301c-0.867,0-1.485-0.167-1.854-0.501s-0.554-0.771-0.554-1.31
		c0-0.527,0.185-0.958,0.554-1.292s0.987-0.501,1.854-0.501h1.301v-3.252c0-0.867,0.167-1.485,0.501-1.854s0.771-0.554,1.31-0.554
		c0.527,0,0.958,0.185,1.292,0.554s0.501,0.987,0.501,1.854v3.252h6.662c0.867,0,1.485,0.167,1.854,0.501s0.554,0.771,0.554,1.31
		c0,0.527-0.185,0.958-0.554,1.292s-0.987,0.501-1.854,0.501H398.455z"/>
	<path fill="#FFFFFF" d="M429.99,1105.397h-14.783c0.375,0.938,1.04,1.693,1.995,2.268s2.247,0.861,3.876,0.861
		c1.336,0,3.111-0.287,5.326-0.861c0.914-0.234,1.547-0.352,1.898-0.352c0.48,0,0.885,0.17,1.213,0.51s0.492,0.768,0.492,1.283
		c0,0.469-0.176,0.867-0.527,1.195c-0.469,0.434-1.611,0.847-3.428,1.239s-3.562,0.589-5.238,0.589
		c-2.883,0-5.188-0.814-6.917-2.443s-2.593-3.633-2.593-6.012c0-2.531,0.935-4.591,2.804-6.179s4.022-2.382,6.46-2.382
		c1.465,0,2.81,0.258,4.034,0.773s2.136,1.072,2.733,1.67c0.844,0.867,1.541,1.939,2.092,3.217c0.375,0.891,0.562,1.922,0.562,3.094
		V1105.397z M426,1101.793c-0.551-1.031-1.271-1.802-2.162-2.312s-1.951-0.765-3.182-0.765c-1.219,0-2.273,0.255-3.164,0.765
		s-1.617,1.28-2.18,2.312H426z"/>
	<path fill="#FFFFFF" d="M441.802,1095.588v2.25c1.512-1.09,2.704-1.816,3.577-2.18s1.69-0.545,2.452-0.545
		c1.172,0,2.309,0.434,3.41,1.301c0.75,0.586,1.125,1.184,1.125,1.793c0,0.516-0.179,0.952-0.536,1.31s-0.788,0.536-1.292,0.536
		c-0.445,0-0.914-0.223-1.406-0.668s-0.932-0.668-1.318-0.668c-0.504,0-1.257,0.316-2.259,0.949s-2.253,1.582-3.753,2.848v5.432
		h5.133c0.867,0,1.485,0.167,1.854,0.501s0.554,0.771,0.554,1.31c0,0.527-0.185,0.958-0.554,1.292s-0.987,0.501-1.854,0.501h-10.881
		c-0.867,0-1.485-0.167-1.854-0.501s-0.554-0.771-0.554-1.31c0-0.527,0.185-0.958,0.554-1.292s0.987-0.501,1.854-0.501h2.145v-8.754
		h-1.301c-0.867,0-1.485-0.167-1.854-0.501s-0.554-0.771-0.554-1.31c0-0.527,0.185-0.958,0.554-1.292s0.987-0.501,1.854-0.501
		H441.802z"/>
	<path fill="#FFFFFF" d="M484.869,1099.192v7.225c0,0.773,0.158,1.283,0.475,1.529c0.492,0.387,1.371,0.58,2.637,0.58
		c1.84,0,3.539-0.393,5.098-1.178c0.598-0.305,1.066-0.457,1.406-0.457c0.469,0,0.876,0.176,1.222,0.527s0.519,0.779,0.519,1.283
		c0,0.469-0.188,0.873-0.562,1.213c-0.574,0.551-1.708,1.058-3.401,1.521s-3.12,0.694-4.28,0.694c-2.238,0-3.917-0.483-5.036-1.45
		s-1.679-2.153-1.679-3.56v-7.928h-1.301c-0.867,0-1.485-0.167-1.854-0.501s-0.554-0.771-0.554-1.31
		c0-0.527,0.185-0.958,0.554-1.292s0.987-0.501,1.854-0.501h1.301v-3.252c0-0.867,0.167-1.485,0.501-1.854s0.771-0.554,1.31-0.554
		c0.527,0,0.958,0.185,1.292,0.554s0.501,0.987,0.501,1.854v3.252h6.662c0.867,0,1.485,0.167,1.854,0.501s0.554,0.771,0.554,1.31
		c0,0.527-0.185,0.958-0.554,1.292s-0.987,0.501-1.854,0.501H484.869z"/>
	<path fill="#FFFFFF" d="M503.642,1088.75v7.682c0.75-0.445,1.509-0.776,2.276-0.993s1.544-0.325,2.329-0.325
		c1.242,0,2.35,0.211,3.322,0.633s1.778,1.087,2.417,1.995s0.958,2.054,0.958,3.437v6.768c0.914,0,1.512,0.088,1.793,0.264
		c0.562,0.363,0.844,0.879,0.844,1.547c0,0.527-0.182,0.958-0.545,1.292s-0.979,0.501-1.846,0.501h-4.113
		c-0.855,0-1.468-0.167-1.837-0.501s-0.554-0.771-0.554-1.31c0-0.656,0.281-1.166,0.844-1.529c0.293-0.188,0.891-0.275,1.793-0.264
		v-6.521c0-0.926-0.211-1.576-0.633-1.951c-0.551-0.504-1.365-0.756-2.443-0.756c-0.797,0-1.503,0.155-2.118,0.466
		s-1.444,0.981-2.487,2.013v6.75c0.926,0,1.523,0.088,1.793,0.264c0.574,0.363,0.861,0.879,0.861,1.547
		c0,0.527-0.185,0.958-0.554,1.292s-0.987,0.501-1.854,0.501h-4.096c-0.867,0-1.485-0.167-1.854-0.501s-0.554-0.771-0.554-1.31
		c0-0.656,0.287-1.166,0.861-1.529c0.281-0.188,0.879-0.275,1.793-0.264v-15.592h-0.615c-0.867,0-1.485-0.167-1.854-0.501
		s-0.554-0.771-0.554-1.31c0-0.527,0.185-0.958,0.554-1.292s0.987-0.501,1.854-0.501H503.642z"/>
	<path fill="#FFFFFF" d="M532.207,1111.549v-0.844c-0.902,0.48-1.898,0.841-2.988,1.081s-2.08,0.36-2.971,0.36
		c-1.934,0-3.504-0.513-4.711-1.538s-1.811-2.159-1.811-3.401c0-1.512,0.771-2.915,2.312-4.21s3.671-1.942,6.39-1.942
		c1.09,0,2.35,0.117,3.779,0.352v-0.861c0-0.539-0.231-0.979-0.694-1.318s-1.345-0.51-2.646-0.51c-1.066,0-2.449,0.211-4.148,0.633
		c-0.633,0.152-1.125,0.229-1.477,0.229c-0.48,0-0.888-0.173-1.222-0.519s-0.501-0.788-0.501-1.327c0-0.305,0.059-0.568,0.176-0.791
		s0.281-0.401,0.492-0.536s0.65-0.296,1.318-0.483c0.891-0.246,1.799-0.442,2.725-0.589s1.764-0.22,2.514-0.22
		c2.238,0,3.976,0.483,5.212,1.45s1.854,2.288,1.854,3.964v7.418h0.615c0.867,0,1.485,0.167,1.854,0.501s0.554,0.771,0.554,1.31
		c0,0.527-0.185,0.958-0.554,1.292s-0.987,0.501-1.854,0.501H532.207z M532.207,1105.098c-1.441-0.281-2.771-0.422-3.99-0.422
		c-1.465,0-2.725,0.357-3.779,1.072c-0.656,0.457-0.984,0.92-0.984,1.389c0,0.34,0.158,0.615,0.475,0.826
		c0.586,0.387,1.389,0.58,2.408,0.58c0.867,0,1.849-0.17,2.944-0.51s2.071-0.803,2.927-1.389V1105.098z"/>
	<path fill="#FFFFFF" d="M546.919,1095.588v1.213c0.656-0.562,1.38-0.984,2.171-1.266s1.649-0.422,2.575-0.422
		c2.133,0,3.82,0.662,5.062,1.986c0.984,1.055,1.477,2.438,1.477,4.148v6.697c0.762,0,1.324,0.167,1.688,0.501
		s0.545,0.771,0.545,1.31c0,0.527-0.185,0.958-0.554,1.292s-0.987,0.501-1.854,0.501h-3.252c-0.867,0-1.485-0.167-1.854-0.501
		s-0.554-0.771-0.554-1.31c0-0.527,0.182-0.958,0.545-1.292s0.926-0.501,1.688-0.501v-6.803c0-0.785-0.211-1.359-0.633-1.723
		c-0.551-0.469-1.377-0.703-2.479-0.703c-0.832,0-1.562,0.161-2.188,0.483s-1.421,1.005-2.382,2.048v6.697
		c0.926,0,1.523,0.088,1.793,0.264c0.574,0.352,0.861,0.867,0.861,1.547c0,0.527-0.185,0.958-0.554,1.292s-0.987,0.501-1.854,0.501
		h-4.096c-0.867,0-1.485-0.167-1.854-0.501s-0.554-0.771-0.554-1.31c0-0.656,0.281-1.166,0.844-1.529
		c0.281-0.176,0.885-0.264,1.811-0.264v-8.754c-0.762,0-1.324-0.17-1.688-0.51s-0.545-0.773-0.545-1.301s0.185-0.958,0.554-1.292
		s0.987-0.501,1.854-0.501H546.919z"/>
	<path fill="#FFFFFF" d="M599.39,1096.239c0.434-0.41,0.879-0.615,1.336-0.615c0.516,0,0.94,0.185,1.274,0.554
		s0.501,0.981,0.501,1.837v2.32c0,0.867-0.167,1.482-0.501,1.846s-0.771,0.545-1.31,0.545c-0.492,0-0.908-0.141-1.248-0.422
		c-0.246-0.211-0.439-0.642-0.58-1.292s-0.48-1.134-1.02-1.45c-0.949-0.562-2.162-0.844-3.639-0.844
		c-1.699,0-3.062,0.498-4.087,1.494s-1.538,2.256-1.538,3.779c0,1.406,0.492,2.517,1.477,3.331s2.619,1.222,4.904,1.222
		c1.5,0,2.725-0.152,3.674-0.457c0.562-0.188,1.096-0.507,1.6-0.958s0.961-0.677,1.371-0.677c0.492,0,0.917,0.182,1.274,0.545
		s0.536,0.791,0.536,1.283c0,0.797-0.545,1.553-1.635,2.268c-1.617,1.066-3.984,1.6-7.102,1.6c-2.801,0-4.98-0.58-6.539-1.74
		c-2.109-1.559-3.164-3.691-3.164-6.398c0-2.566,0.855-4.69,2.566-6.372s3.943-2.522,6.697-2.522c0.996,0,1.922,0.094,2.777,0.281
		S598.664,1095.864,599.39,1096.239z"/>
	<path fill="#FFFFFF" d="M624.738,1103.868c0,1.383-0.384,2.722-1.151,4.017s-1.91,2.326-3.428,3.094s-3.103,1.151-4.755,1.151
		c-1.641,0-3.211-0.378-4.711-1.134s-2.643-1.784-3.428-3.085s-1.178-2.66-1.178-4.078c0-1.441,0.398-2.856,1.195-4.245
		s1.942-2.481,3.437-3.278s3.056-1.195,4.685-1.195c1.641,0,3.22,0.407,4.737,1.222s2.663,1.91,3.437,3.287
		S624.738,1102.415,624.738,1103.868z M621.134,1103.885c0-1.16-0.416-2.227-1.248-3.199c-1.137-1.312-2.631-1.969-4.482-1.969
		c-1.629,0-2.988,0.521-4.078,1.564s-1.635,2.25-1.635,3.621c0,1.125,0.551,2.177,1.652,3.155s2.455,1.468,4.061,1.468
		c1.617,0,2.977-0.489,4.078-1.468S621.134,1105.022,621.134,1103.885z"/>
	<path fill="#FFFFFF" d="M631.417,1095.588v1.02c0.586-0.574,1.116-0.97,1.591-1.187s1.022-0.325,1.644-0.325
		c0.527,0,1.049,0.129,1.564,0.387s1.02,0.645,1.512,1.16c0.621-0.516,1.251-0.899,1.89-1.151s1.292-0.378,1.96-0.378
		c1.336,0,2.42,0.357,3.252,1.072c1.102,0.938,1.652,2.168,1.652,3.691v8.068c0.75,0,1.307,0.17,1.67,0.51s0.545,0.773,0.545,1.301
		s-0.182,0.958-0.545,1.292s-0.979,0.501-1.846,0.501h-3.428v-11.373c0-0.551-0.1-0.932-0.299-1.143s-0.504-0.316-0.914-0.316
		c-0.398,0-0.768,0.105-1.107,0.316c-0.434,0.293-0.961,0.844-1.582,1.652v7.26c0.75,0,1.307,0.17,1.67,0.51
		s0.545,0.773,0.545,1.301s-0.182,0.958-0.545,1.292s-0.979,0.501-1.846,0.501h-3.428v-11.373c0-0.539-0.103-0.917-0.308-1.134
		s-0.513-0.325-0.923-0.325c-0.422,0-0.838,0.132-1.248,0.396s-0.902,0.788-1.477,1.573v7.26c0.75,0,1.31,0.17,1.679,0.51
		s0.554,0.773,0.554,1.301s-0.185,0.958-0.554,1.292s-0.987,0.501-1.854,0.501h-3.252c-0.867,0-1.485-0.167-1.854-0.501
		s-0.554-0.771-0.554-1.31c0-0.527,0.182-0.958,0.545-1.292s0.926-0.501,1.688-0.501v-8.754c-0.762,0-1.324-0.17-1.688-0.51
		s-0.545-0.773-0.545-1.301s0.185-0.958,0.554-1.292s0.987-0.501,1.854-0.501H631.417z"/>
	<path fill="#FFFFFF" d="M654.111,1109.563v5.906h2.162c0.867,0,1.485,0.167,1.854,0.501s0.554,0.771,0.554,1.31
		c0,0.527-0.185,0.958-0.554,1.292s-0.987,0.501-1.854,0.501h-6.381c-0.867,0-1.485-0.167-1.854-0.501s-0.554-0.765-0.554-1.292
		c0-0.539,0.188-0.976,0.562-1.31s0.99-0.501,1.846-0.501h0.615v-16.277h-0.615c-0.867,0-1.485-0.167-1.854-0.501
		s-0.554-0.771-0.554-1.31c0-0.527,0.185-0.958,0.554-1.292s0.987-0.501,1.854-0.501h4.219v1.23
		c0.844-0.574,1.717-1.002,2.619-1.283s1.828-0.422,2.777-0.422c2.461,0,4.559,0.835,6.293,2.505s2.602,3.583,2.602,5.739
		c0,2.379-1.025,4.342-3.076,5.889c-1.711,1.289-3.639,1.934-5.783,1.934c-0.926,0-1.84-0.135-2.742-0.404
		S655.001,1110.102,654.111,1109.563z M664.798,1103.375c0-0.504-0.199-1.146-0.598-1.925s-1.011-1.43-1.837-1.951
		s-1.796-0.782-2.909-0.782c-1.793,0-3.217,0.674-4.271,2.021c-0.715,0.926-1.072,1.816-1.072,2.672
		c0,0.961,0.513,1.896,1.538,2.804s2.294,1.362,3.806,1.362c1.523,0,2.795-0.451,3.814-1.354S664.798,1104.372,664.798,1103.375z"/>
	<path fill="#FFFFFF" d="M681.99,1088.75v19.195h4.324c0.867,0,1.485,0.167,1.854,0.501s0.554,0.771,0.554,1.31
		c0,0.527-0.185,0.958-0.554,1.292s-0.987,0.501-1.854,0.501h-12.252c-0.867,0-1.485-0.167-1.854-0.501s-0.554-0.771-0.554-1.31
		c0-0.527,0.185-0.958,0.554-1.292s0.987-0.501,1.854-0.501h4.324v-15.592h-2.9c-0.855,0-1.471-0.167-1.846-0.501
		s-0.562-0.771-0.562-1.31c0-0.527,0.185-0.958,0.554-1.292s0.987-0.501,1.854-0.501H681.99z"/>
	<path fill="#FFFFFF" d="M710.835,1105.397h-14.783c0.375,0.938,1.04,1.693,1.995,2.268s2.247,0.861,3.876,0.861
		c1.336,0,3.111-0.287,5.326-0.861c0.914-0.234,1.547-0.352,1.898-0.352c0.48,0,0.885,0.17,1.213,0.51s0.492,0.768,0.492,1.283
		c0,0.469-0.176,0.867-0.527,1.195c-0.469,0.434-1.611,0.847-3.428,1.239s-3.562,0.589-5.238,0.589
		c-2.883,0-5.188-0.814-6.917-2.443s-2.593-3.633-2.593-6.012c0-2.531,0.935-4.591,2.804-6.179s4.022-2.382,6.46-2.382
		c1.465,0,2.81,0.258,4.034,0.773s2.136,1.072,2.733,1.67c0.844,0.867,1.541,1.939,2.092,3.217c0.375,0.891,0.562,1.922,0.562,3.094
		V1105.397z M706.845,1101.793c-0.551-1.031-1.271-1.802-2.162-2.312s-1.951-0.765-3.182-0.765c-1.219,0-2.273,0.255-3.164,0.765
		s-1.617,1.28-2.18,2.312H706.845z"/>
	<path fill="#FFFFFF" d="M726.093,1103.252l5.467,4.693c0.656,0.035,1.148,0.22,1.477,0.554s0.492,0.753,0.492,1.257
		c0,0.527-0.185,0.958-0.554,1.292s-0.987,0.501-1.854,0.501h-4.096c-0.867,0-1.485-0.167-1.854-0.501s-0.554-0.776-0.554-1.327
		c0-0.422,0.132-0.794,0.396-1.116s0.624-0.542,1.081-0.659l-2.689-2.32l-2.742,2.32c0.551,0.141,0.946,0.357,1.187,0.65
		s0.36,0.668,0.36,1.125c0,0.551-0.182,0.993-0.545,1.327s-0.979,0.501-1.846,0.501h-4.061c-0.867,0-1.485-0.167-1.854-0.501
		s-0.554-0.771-0.554-1.31c0-0.492,0.164-0.905,0.492-1.239s0.82-0.519,1.477-0.554l5.344-4.711l-4.729-4.043
		c-0.621-0.047-1.093-0.237-1.415-0.571s-0.483-0.747-0.483-1.239c0-0.527,0.185-0.958,0.554-1.292s0.987-0.501,1.854-0.501h3.375
		c0.867,0,1.485,0.167,1.854,0.501s0.554,0.759,0.554,1.274c0,0.691-0.328,1.254-0.984,1.688l2.18,1.811l2.145-1.846
		c-0.645-0.457-0.967-0.984-0.967-1.582c0-0.562,0.185-1.011,0.554-1.345s0.987-0.501,1.854-0.501h3.34
		c0.867,0,1.485,0.167,1.854,0.501s0.554,0.771,0.554,1.31c0,0.48-0.161,0.888-0.483,1.222s-0.8,0.524-1.433,0.571L726.093,1103.252
		z"/>
</g>
<g>
	<defs>
		<rect id="SVGID_3_" y="0.001" width="841.89" height="1190.549"/>
	</defs>
	<clipPath id="SVGID_4_">
		<use xlink:href="#SVGID_3_"  overflow="visible"/>
	</clipPath>
	<path clip-path="url(#SVGID_4_)" fill="#FFFFFF" d="M370.711,560.296c-32.647,1.703-28.157,101.9-28.157,101.9
		s-1.388,11.062-6.058,17.428c-4.67,6.369-12.492,10.924-14.471,8.925l12.16-53.539h-17.939c0,0-9.559,53.596-20.02,55.574
		c-10.461,1.98-7.492-8.956-7.492-20.166c0-16.508,2.248-34.606-9.707-36.101c-11.957-1.495-24.691,18.91-24.691,18.91
		s1.507-11.962-10.45-17.941c-11.953-5.977-41.84,8.971-41.84,8.971c2.784-12.62-2.271-28.542-16.46-28.388
		c-12.53,0.755-21.36,9.479-29.868,16.412l11.975,11.976c0,0,11.916-13.438,17.893-5.965c5.976,7.472-23.012,146.214-23.012,146.214
		h17.939l17.047-71.498c0,0,38.856,3.004,46.326-5.965c7.475-8.967,13.455-32.873,13.455-32.873s16.452-17.965,14.957-11.988
		c-1.496,5.978-3.009,46.328,4.461,47.82c7.475,1.497,22.426,0,22.426,0l-18.125,58.116l-20.713,1.667l-3.006,14.979h34.401
		l24.135-75.132c0,0,10.832-1.552,16.966-4.902c6.135-3.348,10.928-9.273,15.35-13.686c0.977,7.49,1.283,13.376,10.449,18.125
		c11.881,6.154,28.377,1.719,35.463-3.698c17.188,11.208,31.393-2.218,31.393-2.218s16.418,14.943,25.384,0
		c24.659,16.438,38.098-0.695,38.098-0.695s1.156,8.076,21.914,9.478c20.763,1.406,30.654-18.725,30.654-18.725
		c4.061,5.155,6.125,16.125,16.135,17.198c10.01,1.078,20.015-5.333,27.604-13.27c5.653,10.651,11.41,11.481,18.634,14.057
		c7.219,2.578,21.157-5.103,27.047-9.154c7.51,13.52,29.618,12.518,36.108,2.452c0.092,0.705,1.754,2.216,10.496,5.131
		c3.465-2.529,4.452-6.702,8.599-12.346c-3.736-1.493-11.281-5.224-11.281-5.224c-2.222-12.449-8.916-23.995-16.043-35.463
		l7.491-16.414l-14.934-4.484c-9.214,19.982-16.97,37.697-23.168,49.471c-6.195,11.776-29.125,12.237-33.611,2.036
		c30.029-22.476,33.353-57.067,7.445-53.763c-23.978,3.059-21.812,45.183-21.812,45.183s-8.813,8.566-20.771,10.06
		c-11.955,1.496,3.791-53.263,3.791-53.263h-16.414c0,0-9.879,39.001-21.731,51.783c-10.681,11.521-15.291,4.648-18.214,3.282
		c-3.032-1.413,33.664-130.213,33.664-130.213l-20.959,0.188l-21.909,76.022c-11.955-0.242-25.397-1.961-37.357,8.695
		c-16.065,15.09-9.856,48.911-28.436,42.827c-5.978,1.495,10.127-45.511,10.127-45.511c-1.091-7.65-24.752-11.138-36.525-3.885
		c-23.355,14.389-21.223,42.94-25.615,53.355c-10.35,4.787-13.217,1.622-17.307-8.876c17.201-20.12,44.053-121.396,9.68-122.892
		C371.747,560.272,371.229,560.269,370.711,560.296 M371.982,584.459c0.16-0.02,0.303-0.013,0.463,0
		c7.143,0.581-14.219,69.508-14.219,69.508C356.011,653.232,361.98,585.864,371.982,584.459 M598.13,650.941
		c3.409-2.87,5.889-2.268,6.424-0.296c0.532,1.969-12.873,19.611-12.873,19.611C591.754,663.621,594.714,653.81,598.13,650.941
		 M486.786,654.907c4.276-0.121,5.97-0.735,8.065,0.862l-6.799,30.098c-1.49,4.547-21.752,8.221-23.994-2.17
		c-2.103-9.746,3.625-17.365,7.791-22.595C475.213,656.88,481.282,655.062,486.786,654.907 M420.158,655.747
		c1.164-0.023,2.379,0.168,3.607,0.601l-7.629,27.402c-3.736,5.231-13.726,7.481-14.681-0.146
		C400.214,673.672,408.91,655.969,420.158,655.747 M233.209,655.769c1.976,0.042,3.744,0.521,5.132,1.711
		c7.397,6.341,0.866,28.354-6.66,33.384c-9.045,6.044-27.648,1.802-27.648,1.802l7.398-28.527
		C212.292,664.138,224.643,655.583,233.209,655.769 M652.65,669.963c0,0,9.013,19.22,7.396,22.193
		c-4.027,7.439-18.222-0.117-17.427-2.637L652.65,669.963z"/>
	<path clip-path="url(#SVGID_4_)" fill="#FFFFFF" d="M561.823,599.782c16.143-0.549,15.192,24.647-1.062,22.947
		C549.12,621.508,545.681,600.332,561.823,599.782"/>
	<path clip-path="url(#SVGID_4_)" d="M399.838,359.575c-4.039-11.625-85.096-11.966-94.324-11.966
		c-61.071,0-92.872,4.863-94.563,14.944c0,31.836,43.406,70.733,94.064,70.733c49.989,0,92.916-37.871,94.045-69.46
		C400.453,362.054,400.101,360.326,399.838,359.575 M392.986,364.902c0,23.278-34.599,59.197-80.567,59.197
		c-45.969,0-80.564-35.919-80.624-58.656c1.58-3.473,24.47-8.637,81.079-8.637c43.936,0,73.438,3.795,80.112,6.809V364.902z"/>
	<path clip-path="url(#SVGID_4_)" d="M439.1,363.826c1.127,31.589,44.056,69.46,94.041,69.46c50.662,0,94.071-38.897,94.071-70.733
		c-1.692-10.081-33.5-14.944-94.565-14.944c-9.233,0-90.291,0.341-94.327,11.966C438.057,360.326,437.715,362.054,439.1,363.826
		 M445.169,363.615c6.683-3.014,36.181-6.809,80.111-6.809c56.61,0,79.498,5.164,81.082,8.637
		c-0.062,22.737-34.654,58.656-80.623,58.656c-45.97,0-80.57-35.919-80.57-59.197V363.615z"/>
</g>
</svg>
