<?xml version="1.0" encoding="UTF-8" standalone="no"?>
<!-- Created with Inkscape (http://www.inkscape.org/) -->

<svg
   xmlns:dc="http://purl.org/dc/elements/1.1/"
   xmlns:cc="http://creativecommons.org/ns#"
   xmlns:rdf="http://www.w3.org/1999/02/22-rdf-syntax-ns#"
   xmlns:svg="http://www.w3.org/2000/svg"
   xmlns="http://www.w3.org/2000/svg"
   xmlns:sodipodi="http://sodipodi.sourceforge.net/DTD/sodipodi-0.dtd"
   xmlns:inkscape="http://www.inkscape.org/namespaces/inkscape"
   width="900"
   height="536.9715"
   id="svg2"
   version="1.1"
   inkscape:version="0.47 r22583"
   sodipodi:docname="pyladies-tshirt-mens.svg"
   inkscape:export-filename="/home/scaredofrabbits/Documents/pyladies-docs/t-shirts/pyladies-tshirt-mens.png"
   inkscape:export-xdpi="300.01593"
   inkscape:export-ydpi="300.01593"
   style="display:inline">
  <defs
     id="defs4">
    <inkscape:perspective
       sodipodi:type="inkscape:persp3d"
       inkscape:vp_x="0 : 526.18109 : 1"
       inkscape:vp_y="0 : 1000 : 0"
       inkscape:vp_z="744.09448 : 526.18109 : 1"
       inkscape:persp3d-origin="372.04724 : 350.78739 : 1"
       id="perspective10" />
    <inkscape:perspective
       id="perspective2867"
       inkscape:persp3d-origin="0.5 : 0.33333333 : 1"
       inkscape:vp_z="1 : 0.5 : 1"
       inkscape:vp_y="0 : 1000 : 0"
       inkscape:vp_x="0 : 0.5 : 1"
       sodipodi:type="inkscape:persp3d" />
    <inkscape:perspective
       id="perspective2889"
       inkscape:persp3d-origin="0.5 : 0.33333333 : 1"
       inkscape:vp_z="1 : 0.5 : 1"
       inkscape:vp_y="0 : 1000 : 0"
       inkscape:vp_x="0 : 0.5 : 1"
       sodipodi:type="inkscape:persp3d" />
    <inkscape:perspective
       id="perspective2980"
       inkscape:persp3d-origin="0.5 : 0.33333333 : 1"
       inkscape:vp_z="1 : 0.5 : 1"
       inkscape:vp_y="0 : 1000 : 0"
       inkscape:vp_x="0 : 0.5 : 1"
       sodipodi:type="inkscape:persp3d" />
    <inkscape:perspective
       id="perspective2838"
       inkscape:persp3d-origin="0.5 : 0.33333333 : 1"
       inkscape:vp_z="1 : 0.5 : 1"
       inkscape:vp_y="0 : 1000 : 0"
       inkscape:vp_x="0 : 0.5 : 1"
       sodipodi:type="inkscape:persp3d" />
    <inkscape:perspective
       id="perspective2891"
       inkscape:persp3d-origin="0.5 : 0.33333333 : 1"
       inkscape:vp_z="1 : 0.5 : 1"
       inkscape:vp_y="0 : 1000 : 0"
       inkscape:vp_x="0 : 0.5 : 1"
       sodipodi:type="inkscape:persp3d" />
    <inkscape:perspective
       id="perspective2919"
       inkscape:persp3d-origin="0.5 : 0.33333333 : 1"
       inkscape:vp_z="1 : 0.5 : 1"
       inkscape:vp_y="0 : 1000 : 0"
       inkscape:vp_x="0 : 0.5 : 1"
       sodipodi:type="inkscape:persp3d" />
    <inkscape:perspective
       id="perspective3324"
       inkscape:persp3d-origin="0.5 : 0.33333333 : 1"
       inkscape:vp_z="1 : 0.5 : 1"
       inkscape:vp_y="0 : 1000 : 0"
       inkscape:vp_x="0 : 0.5 : 1"
       sodipodi:type="inkscape:persp3d" />
    <inkscape:perspective
       id="perspective3491"
       inkscape:persp3d-origin="0.5 : 0.33333333 : 1"
       inkscape:vp_z="1 : 0.5 : 1"
       inkscape:vp_y="0 : 1000 : 0"
       inkscape:vp_x="0 : 0.5 : 1"
       sodipodi:type="inkscape:persp3d" />
    <inkscape:perspective
       id="perspective3513"
       inkscape:persp3d-origin="0.5 : 0.33333333 : 1"
       inkscape:vp_z="1 : 0.5 : 1"
       inkscape:vp_y="0 : 1000 : 0"
       inkscape:vp_x="0 : 0.5 : 1"
       sodipodi:type="inkscape:persp3d" />
    <inkscape:perspective
       id="perspective3549"
       inkscape:persp3d-origin="0.5 : 0.33333333 : 1"
       inkscape:vp_z="1 : 0.5 : 1"
       inkscape:vp_y="0 : 1000 : 0"
       inkscape:vp_x="0 : 0.5 : 1"
       sodipodi:type="inkscape:persp3d" />
    <inkscape:perspective
       id="perspective3617"
       inkscape:persp3d-origin="0.5 : 0.33333333 : 1"
       inkscape:vp_z="1 : 0.5 : 1"
       inkscape:vp_y="0 : 1000 : 0"
       inkscape:vp_x="0 : 0.5 : 1"
       sodipodi:type="inkscape:persp3d" />
    <inkscape:perspective
       id="perspective3655"
       inkscape:persp3d-origin="0.5 : 0.33333333 : 1"
       inkscape:vp_z="1 : 0.5 : 1"
       inkscape:vp_y="0 : 1000 : 0"
       inkscape:vp_x="0 : 0.5 : 1"
       sodipodi:type="inkscape:persp3d" />
    <inkscape:perspective
       id="perspective3688"
       inkscape:persp3d-origin="0.5 : 0.33333333 : 1"
       inkscape:vp_z="1 : 0.5 : 1"
       inkscape:vp_y="0 : 1000 : 0"
       inkscape:vp_x="0 : 0.5 : 1"
       sodipodi:type="inkscape:persp3d" />
    <inkscape:perspective
       id="perspective3724"
       inkscape:persp3d-origin="0.5 : 0.33333333 : 1"
       inkscape:vp_z="1 : 0.5 : 1"
       inkscape:vp_y="0 : 1000 : 0"
       inkscape:vp_x="0 : 0.5 : 1"
       sodipodi:type="inkscape:persp3d" />
  </defs>
  <sodipodi:namedview
     id="base"
     pagecolor="#ffffff"
     bordercolor="#666666"
     borderopacity="1.0"
     inkscape:pageopacity="0.0"
     inkscape:pageshadow="2"
     inkscape:zoom="0.35355339"
     inkscape:cx="-245.50025"
     inkscape:cy="459.08844"
     inkscape:document-units="px"
     inkscape:current-layer="layer1"
     showgrid="false"
     inkscape:window-width="1366"
     inkscape:window-height="697"
     inkscape:window-x="0"
     inkscape:window-y="24"
     inkscape:window-maximized="1"
     units="in" />
  <metadata
     id="metadata7">
    <rdf:RDF>
      <cc:Work
         rdf:about="">
        <dc:format>image/svg+xml</dc:format>
        <dc:type
           rdf:resource="http://purl.org/dc/dcmitype/StillImage" />
        <dc:title />
      </cc:Work>
    </rdf:RDF>
  </metadata>
  <g
     inkscape:label="script"
     inkscape:groupmode="layer"
     id="layer1"
     transform="translate(-362.57256,-344.66866)"
     style="display:inline">
    <g
       style="fill:#000000;fill-opacity:1;display:inline"
       id="g2858-3-4"
       transform="matrix(2.5102414,0,0,2.5102414,361.31744,469.01101)"
       inkscape:export-filename="/home/scaredofrabbits/Documents/pyladies-docs/t-shirts/t-shirts-06-18-2011.png"
       inkscape:export-xdpi="44.701157"
       inkscape:export-ydpi="44.701157">
      <path
         sodipodi:nodetypes="ccsccczsscsccccscccscssccccccscsccccscscsccccccccscscsccssccccccsccsccsccczczcccssccccsccssccccscc"
         id="path2841-2-0-9"
         d="M 145.8125,0.50000432 C 123.74597,1.6523143 126.78125,69.375004 126.78125,69.375004 c 0,0 -0.93703,7.47672 -4.09375,11.78125 -3.15673,4.30452 -8.44519,7.38215 -9.78125,6.03125 l 8.21875,-36.1875 -12.125,0 c 0,6.4e-4 -6.46018,36.223795 -13.53125,37.5625 -7.07107,1.338705 -5.063295,-6.05393 -5.063292,-13.630076 4e-6,-11.157502 1.519512,-23.391014 -6.561708,-24.401174 -8.08122,-1.01016 -16.6875,12.78125 -16.6875,12.78125 0,0 1.01872,-8.08439 -7.0625,-12.125 -8.08122,-4.04061 -28.28125,6.0625 -28.28125,6.0625 1.881521,-8.531888 -1.534797,-19.292188 -11.125,-19.1875 C 12.218554,38.573818 6.2509254,44.468939 0.5,49.156254 l 8.09375,8.09375 c 0,0 8.05314,-9.08202 12.09375,-4.03125 4.04061,5.05076 -15.5535714,98.825896 -15.5535714,98.825896 l 12.1250004,0 11.522321,-48.32589 c 0,0 26.26174,2.02967 31.3125,-4.031256 5.05076,-6.06091 9.09375,-22.21875 9.09375,-22.21875 0,0 11.119129,-12.143721 10.108979,-8.103111 -1.01015,4.04061 -2.034749,31.311717 3.016021,32.321867 5.05076,1.01015 15.15625,0 15.15625,0 l -12.25,39.28125 -14,1.125 -2.03125,10.125 23.25,0 16.3125,-50.78125 c 0,0 7.3219,-1.04918 11.46875,-3.312506 4.14685,-2.26332 7.38586,-6.26897 10.375,-9.25 0.65827,5.06127 0.86643,9.040319 7.0625,12.250006 8.03025,4.15982 19.17878,1.16145 23.96875,-2.500006 11.61676,7.576146 21.21875,-1.5 21.21875,-1.5 0,0 11.09533,10.101536 17.15625,0 16.66752,11.111676 25.75,-0.46875 25.75,-0.46875 0,0 0.7824,5.457376 14.8125,6.406256 14.0301,0.94888 20.71875,-12.656256 20.71875,-12.656256 2.74434,3.48423 4.13991,10.897926 10.90625,11.625006 6.76634,0.72708 13.52714,-3.605916 18.65625,-8.968756 3.81969,7.197816 7.71317,7.759426 12.59375,9.500006 4.88058,1.74058 14.30009,-3.449156 18.28125,-6.187506 5.0763,9.137536 20.01868,8.460296 24.40625,1.65625 0.0614,0.478178 1.18435,1.498951 7.09375,3.468756 2.34189,-1.709596 3.00844,-4.529786 5.8125,-8.343756 -2.52539,-1.01015 -7.625,-3.53125 -7.625,-3.53125 -1.50285,-8.41307 -6.02671,-16.21852 -10.84375,-23.96875 l 5.0625,-11.09375 -10.09375,-3.03125 c -6.22431,13.50459 -11.46678,25.47812 -15.65625,33.4375 -4.18947,7.95937 -19.68829,8.26924 -22.71875,1.375 20.29456,-15.18963 22.54306,-38.57158 5.03125,-36.337881 -16.2066,2.067214 -14.74173,30.537459 -14.74173,30.537459 0,0 -5.9583,5.790272 -14.03952,6.800422 -8.08122,1.01015 2.5625,-36 2.5625,-36 l -11.09375,0 c 0,0 -6.67833,26.361223 -14.6875,35 -7.21864,7.786096 -10.33604,3.141199 -12.3125,2.21875 -2.04681,-0.955285 22.75428,-88.01119579 22.75428,-88.01119579 L 246.46288,0.67814417 231.65625,52.062504 c -8.08122,-0.16396 -17.16878,-1.32579 -25.25,5.875 -10.86008,10.20217 -6.66295,33.061625 -19.21875,28.948445 -4.04061,1.01015 6.84375,-30.760945 6.84375,-30.760945 -0.7389,-5.17228 -16.72934,-7.52701 -24.6875,-2.625 -15.78673,9.72419 -14.34548,29.02315 -17.3125,36.0625 -6.99635,3.234382 -8.93416,1.096535 -11.69844,-6 11.62571,-13.5981 29.7757,-82.0523497 6.54219,-83.06249968 -0.36302,-0.0157837 -0.71224,-0.0182906 -1.0625,0 z m 0.85977,16.33280468 c 0.10733,-0.01509 0.20458,-0.0088 0.3125,0 4.82812,0.392044 -9.60977,46.979695 -9.60977,46.979695 -1.49758,-0.49518 2.5355,-46.029026 9.29727,-46.979695 z m 152.85005,44.935053 c 2.30539,-1.938781 3.98307,-1.532499 4.34375,-0.200894 0.36068,1.331605 -8.70089,13.254465 -8.70089,13.254465 0.0488,-4.483809 2.05176,-11.114791 4.35714,-13.053571 z m -75.25709,2.679795 c 2.8925,-0.08146 4.03617,-0.49733 5.45352,0.583597 l -4.59375,20.34375 c -1.01015,3.07161 -14.70352,5.55644 -16.21875,-1.46875 -1.42074,-6.58708 2.45047,-11.737647 5.26523,-15.271097 2.27284,-2.853163 6.37482,-4.082772 10.09375,-4.1875 z m -45.03046,0.567572 c 0.78656,-0.01563 1.60813,0.114287 2.4375,0.406254 l -5.15625,18.521097 c -2.52538,3.53554 -9.27796,5.057614 -9.92227,-0.09883 -0.83873,-6.712304 5.03761,-18.677462 12.64102,-18.828521 z M 52.875,65.031254 c 1.336266,0.02885 2.53125,0.352677 3.46875,1.15625 5,4.28571 0.58666,19.16438 -4.5,22.5625 -6.11501,4.08512 -18.6875,1.21875 -18.6875,1.21875 l 5,-19.28125 c 0.580361,0 8.928263,-5.781289 14.71875,-5.65625 z m 283.5,9.59375 c 0,0 6.08976,12.98952 5,15 -2.72578,5.02877 -12.31902,-0.07963 -11.78125,-1.78125 l 6.78125,-13.21875 z"
         style="fill:#000000;fill-opacity:1;stroke:none;display:inline" />
      <path
         sodipodi:nodetypes="csz"
         id="path2915-9-9-9"
         d="m 274.98435,27.189734 c 10.91038,-0.37102 10.26934,16.6584 -0.71914,15.50829 -7.8672,-0.82342 -10.19123,-15.13726 0.71914,-15.50829 z"
         style="fill:#000000;fill-opacity:1;stroke:none;display:inline" />
    </g>
    <g
       transform="matrix(1.3117012,0,0,1.3117012,-731.22918,58.327851)"
       style="font-size:40px;font-style:normal;font-weight:normal;fill:#000000;fill-opacity:1;stroke:none;font-family:Bitstream Vera Sans"
       id="flowRoot3473">
      <path
         d="m 1100.5742,560.96835 -1.3476,6.32812 4.6289,0 0,2.91016 -5.2735,0 -1.5234,7.07031 -3.0273,0 1.5429,-7.07031 -6.0351,0 -1.5235,7.07031 -2.9883,0 1.5235,-7.07031 -3.3985,0 0,-2.91016 4.0235,0 1.3672,-6.32812 -4.4336,0 0,-2.89063 5.0586,0 1.5429,-7.14844 2.9883,0 -1.5234,7.14844 6.0156,0 1.543,-7.14844 2.9883,0 -1.5235,7.14844 3.6133,0 0,2.89063 -4.2383,0 m -9.0429,0 -1.3672,6.32812 6.0351,0 1.3672,-6.32812 -6.0351,0"
         style="font-variant:normal;font-weight:bold;font-stretch:normal;fill:#000000;font-family:Liberation Mono;-inkscape-font-specification:Liberation Mono Bold"
         id="path3080" />
      <path
         d="m 1151.5313,571.10506 c -1e-4,1.01563 -0.2149,1.92709 -0.6446,2.73438 -0.4167,0.80729 -1.0286,1.4974 -1.8359,2.07031 -0.8073,0.5599 -1.7969,0.9961 -2.9688,1.3086 -1.1719,0.29947 -2.5065,0.44921 -4.0039,0.44921 -1.3411,0 -2.5521,-0.0976 -3.6328,-0.29296 -1.0807,-0.19532 -2.0312,-0.51433 -2.8515,-0.95704 -0.8073,-0.45572 -1.4844,-1.04166 -2.0313,-1.75781 -0.5469,-0.71614 -0.957,-1.60156 -1.2305,-2.65625 l 4.8243,-0.72265 c 0.1562,0.58594 0.371,1.0612 0.6445,1.42578 0.2734,0.36458 0.612,0.64453 1.0156,0.83984 0.4036,0.19532 0.8724,0.32553 1.4063,0.39063 0.5468,0.0651 1.1653,0.0977 1.8554,0.0977 0.625,10e-6 1.2044,-0.0326 1.7383,-0.0977 0.5469,-0.0781 1.0156,-0.20182 1.4063,-0.3711 0.4036,-0.18229 0.7161,-0.42968 0.9375,-0.74219 0.2213,-0.32551 0.332,-0.72916 0.332,-1.21093 0,-0.54687 -0.1628,-0.97656 -0.4883,-1.28907 -0.3125,-0.32551 -0.7487,-0.58593 -1.3086,-0.78125 -0.5469,-0.20832 -1.1979,-0.3841 -1.9531,-0.52734 -0.7422,-0.15624 -1.5365,-0.33202 -2.3828,-0.52734 -0.8855,-0.19531 -1.7578,-0.42968 -2.6172,-0.70313 -0.8594,-0.27343 -1.6276,-0.64452 -2.3047,-1.11328 -0.6771,-0.46874 -1.224,-1.06119 -1.6406,-1.77734 -0.4167,-0.72916 -0.625,-1.64712 -0.625,-2.75391 0,-1.00259 0.1953,-1.89451 0.5859,-2.67578 0.3906,-0.79425 0.9635,-1.46482 1.7188,-2.01172 0.7552,-0.55987 1.6862,-0.98305 2.7929,-1.26953 1.1198,-0.29946 2.4024,-0.4492 3.8477,-0.44922 1.1458,2e-5 2.2135,0.1107 3.2031,0.33203 0.9896,0.20836 1.875,0.5469 2.6563,1.01563 0.7812,0.45575 1.4322,1.04168 1.9531,1.75781 0.5338,0.71616 0.9049,1.58205 1.1133,2.59766 l -4.8633,0.50781 c -0.091,-0.5078 -0.2539,-0.92446 -0.4883,-1.25 -0.2344,-0.33853 -0.5274,-0.60545 -0.8789,-0.80078 -0.3386,-0.1953 -0.7357,-0.32551 -1.1914,-0.39063 -0.4557,-0.0781 -0.9571,-0.11717 -1.5039,-0.11719 -1.3021,2e-5 -2.2787,0.16929 -2.9297,0.50782 -0.6511,0.32554 -0.9766,0.87892 -0.9766,1.66015 0,0.48179 0.1302,0.8659 0.3907,1.15235 0.2734,0.28647 0.651,0.52735 1.1328,0.72265 0.4948,0.18231 1.0742,0.34507 1.7383,0.48828 0.677,0.13023 1.4127,0.29299 2.207,0.48829 0.9765,0.20834 1.9336,0.45574 2.8711,0.74218 0.9505,0.27345 1.7903,0.65757 2.5195,1.15235 0.7422,0.48178 1.3346,1.10678 1.7774,1.875 0.4557,0.76823 0.6835,1.7448 0.6836,2.92968"
         style="font-variant:normal;font-weight:bold;font-stretch:normal;fill:#000000;font-family:Liberation Mono;-inkscape-font-specification:Liberation Mono Bold"
         id="path3082" />
      <path
         d="m 1162.0781,556.14413 0,11.85547 c 0,0.82032 0.065,1.57552 0.1953,2.26562 0.1302,0.67709 0.3321,1.26303 0.6055,1.75781 0.2734,0.48178 0.6185,0.85938 1.0352,1.13282 0.4296,0.27344 0.9375,0.41016 1.5234,0.41015 0.5599,10e-6 1.0872,-0.14322 1.582,-0.42969 0.4948,-0.29947 0.9245,-0.71614 1.2891,-1.25 0.3646,-0.54686 0.651,-1.1914 0.8594,-1.93359 0.2083,-0.7552 0.3125,-1.58202 0.3125,-2.48047 l 0,-11.32812 5.4883,0 0,16.40625 c -1e-4,0.44271 -1e-4,0.91146 0,1.40625 0.013,0.48177 0.026,0.94401 0.039,1.38672 0.026,0.42968 0.046,0.82031 0.059,1.17187 0.026,0.33854 0.046,0.59245 0.059,0.76172 l -5.2344,0 c -0.013,-0.15625 -0.039,-0.40365 -0.078,-0.74219 -0.026,-0.35156 -0.052,-0.73567 -0.078,-1.15234 -0.013,-0.41667 -0.033,-0.83333 -0.059,-1.25 -0.013,-0.41666 -0.02,-0.76823 -0.019,-1.05469 l -0.098,0 c -0.7292,1.60157 -1.6406,2.76693 -2.7344,3.49609 -1.0937,0.72917 -2.3177,1.09375 -3.6719,1.09375 -1.2239,0 -2.2526,-0.20833 -3.0859,-0.625 -0.8333,-0.41666 -1.5104,-0.98307 -2.0312,-1.69921 -0.5079,-0.72917 -0.879,-1.58854 -1.1133,-2.57813 -0.2214,-0.98958 -0.3321,-2.05728 -0.3321,-3.20312 l 0,-13.41797 5.4883,0"
         style="font-variant:normal;font-weight:bold;font-stretch:normal;fill:#000000;font-family:Liberation Mono;-inkscape-font-specification:Liberation Mono Bold"
         id="path3084" />
      <path
         d="m 1185.9844,556.14413 c 0.026,0.0912 0.059,0.27346 0.098,0.54687 0.039,0.27346 0.072,0.57945 0.098,0.91797 0.026,0.33856 0.046,0.68361 0.059,1.03516 0.026,0.35158 0.039,0.66408 0.039,0.9375 l 0.078,0 c 0.3515,-0.70311 0.7552,-1.29556 1.2109,-1.77735 0.4687,-0.49477 0.97,-0.8919 1.5039,-1.1914 0.5339,-0.31248 1.0938,-0.53384 1.6797,-0.66407 0.5859,-0.1432 1.1784,-0.21482 1.7773,-0.21484 1.237,2e-5 2.3242,0.27346 3.2618,0.82031 0.9374,0.5469 1.7187,1.30862 2.3437,2.28516 0.638,0.97658 1.1133,2.13543 1.4258,3.47656 0.3255,1.32814 0.4883,2.77996 0.4883,4.35547 0,1.60157 -0.1563,3.07293 -0.4688,4.41406 -0.3125,1.34115 -0.7878,2.50001 -1.4258,3.47657 -0.638,0.97656 -1.4453,1.73828 -2.4218,2.28515 -0.9636,0.54688 -2.1029,0.82031 -3.418,0.82031 -0.586,0 -1.1719,-0.0651 -1.7578,-0.19531 -0.586,-0.13021 -1.1459,-0.33854 -1.6797,-0.625 -0.5208,-0.29948 -1.0026,-0.68359 -1.4453,-1.15234 -0.4297,-0.48177 -0.8008,-1.06771 -1.1133,-1.75781 l -0.039,0 c 0,0.13021 0,0.32552 0,0.58593 0.013,0.2474 0.02,0.53386 0.02,0.85938 0,0.32552 0,0.66406 0,1.01562 0.013,0.35157 0.019,0.69011 0.019,1.01563 l 0,8.16406 -5.4883,0 0,-24.82422 c 0,-1.02863 -0.019,-1.94008 -0.059,-2.73437 -0.039,-0.80727 -0.072,-1.43227 -0.098,-1.875 l 5.3125,0 m 0.2539,10.66406 c 0,1.39324 0.1237,2.55209 0.3711,3.47656 0.2604,0.91147 0.5924,1.64063 0.9961,2.1875 0.4036,0.53386 0.8463,0.91146 1.3281,1.13281 0.4818,0.22136 0.957,0.33204 1.4258,0.33204 0.5989,0 1.1393,-0.13672 1.6211,-0.41016 0.4947,-0.27343 0.9114,-0.70312 1.25,-1.28906 0.3515,-0.58593 0.6184,-1.33463 0.8008,-2.2461 0.1952,-0.92447 0.2929,-2.03124 0.2929,-3.32031 0,-2.39582 -0.345,-4.19269 -1.0351,-5.39062 -0.6771,-1.1979 -1.6407,-1.79686 -2.8907,-1.79688 -0.4557,2e-5 -0.931,0.11721 -1.4257,0.35156 -0.4818,0.2344 -0.931,0.63153 -1.3477,1.19141 -0.4037,0.55991 -0.7357,1.31512 -0.9961,2.26562 -0.2604,0.93752 -0.3906,2.10939 -0.3906,3.51563"
         style="font-variant:normal;font-weight:bold;font-stretch:normal;fill:#000000;font-family:Liberation Mono;-inkscape-font-specification:Liberation Mono Bold"
         id="path3086" />
      <path
         d="m 1209.9688,556.14413 c 0.026,0.0912 0.058,0.27346 0.098,0.54687 0.039,0.27346 0.072,0.57945 0.098,0.91797 0.026,0.33856 0.045,0.68361 0.059,1.03516 0.026,0.35158 0.039,0.66408 0.039,0.9375 l 0.078,0 c 0.3516,-0.70311 0.7552,-1.29556 1.211,-1.77735 0.4687,-0.49477 0.97,-0.8919 1.5039,-1.1914 0.5338,-0.31248 1.0937,-0.53384 1.6797,-0.66407 0.5859,-0.1432 1.1783,-0.21482 1.7773,-0.21484 1.237,2e-5 2.3242,0.27346 3.2617,0.82031 0.9375,0.5469 1.7188,1.30862 2.3438,2.28516 0.638,0.97658 1.1132,2.13543 1.4258,3.47656 0.3255,1.32814 0.4882,2.77996 0.4883,4.35547 -10e-5,1.60157 -0.1563,3.07293 -0.4688,4.41406 -0.3125,1.34115 -0.7878,2.50001 -1.4258,3.47657 -0.638,0.97656 -1.4453,1.73828 -2.4219,2.28515 -0.9635,0.54688 -2.1028,0.82031 -3.4179,0.82031 -0.586,0 -1.1719,-0.0651 -1.7578,-0.19531 -0.586,-0.13021 -1.1459,-0.33854 -1.6797,-0.625 -0.5209,-0.29948 -1.0026,-0.68359 -1.4453,-1.15234 -0.4297,-0.48177 -0.8008,-1.06771 -1.1133,-1.75781 l -0.039,0 c 0,0.13021 0,0.32552 0,0.58593 0.013,0.2474 0.019,0.53386 0.02,0.85938 -10e-5,0.32552 -10e-5,0.66406 0,1.01562 0.013,0.35157 0.019,0.69011 0.019,1.01563 l 0,8.16406 -5.4883,0 0,-24.82422 c 0,-1.02863 -0.02,-1.94008 -0.059,-2.73437 -0.039,-0.80727 -0.072,-1.43227 -0.098,-1.875 l 5.3125,0 m 0.2539,10.66406 c -10e-5,1.39324 0.1236,2.55209 0.3711,3.47656 0.2604,0.91147 0.5924,1.64063 0.996,2.1875 0.4037,0.53386 0.8464,0.91146 1.3282,1.13281 0.4817,0.22136 0.957,0.33204 1.4258,0.33204 0.5989,0 1.1393,-0.13672 1.621,-0.41016 0.4948,-0.27343 0.9115,-0.70312 1.25,-1.28906 0.3516,-0.58593 0.6185,-1.33463 0.8008,-2.2461 0.1953,-0.92447 0.293,-2.03124 0.293,-3.32031 0,-2.39582 -0.3451,-4.19269 -1.0352,-5.39062 -0.6771,-1.1979 -1.6406,-1.79686 -2.8906,-1.79688 -0.4557,2e-5 -0.931,0.11721 -1.4258,0.35156 -0.4818,0.2344 -0.931,0.63153 -1.3476,1.19141 -0.4037,0.55991 -0.7357,1.31512 -0.9961,2.26562 -0.2604,0.93752 -0.3907,2.10939 -0.3906,3.51563"
         style="font-variant:normal;font-weight:bold;font-stretch:normal;fill:#000000;font-family:Liberation Mono;-inkscape-font-specification:Liberation Mono Bold"
         id="path3088" />
      <path
         d="m 1248.1133,566.691 c 0,1.61459 -0.2019,3.09246 -0.6055,4.4336 -0.4037,1.34115 -1.0287,2.5 -1.875,3.47656 -0.8333,0.96354 -1.901,1.71875 -3.2031,2.26562 -1.2891,0.53386 -2.8255,0.80078 -4.6094,0.80078 -1.7187,0 -3.2096,-0.26692 -4.4726,-0.80078 -1.2631,-0.53385 -2.3178,-1.28255 -3.1641,-2.24609 -0.8333,-0.96354 -1.4583,-2.11588 -1.875,-3.45703 -0.4037,-1.35416 -0.6055,-2.84504 -0.6055,-4.47266 0,-1.57551 0.1953,-3.02733 0.586,-4.35547 0.3906,-1.34113 0.9961,-2.49998 1.8164,-3.47656 0.8333,-0.97654 1.8945,-1.73826 3.1836,-2.28516 1.302,-0.54685 2.8515,-0.82029 4.6484,-0.82031 1.901,2e-5 3.4961,0.27346 4.7852,0.82031 1.302,0.5469 2.3502,1.30862 3.1445,2.28516 0.8073,0.96356 1.3802,2.1159 1.7187,3.45703 0.3516,1.32814 0.5274,2.78647 0.5274,4.375 m -5.7422,0 c 0,-1.24999 -0.085,-2.3242 -0.2539,-3.22265 -0.1563,-0.91145 -0.4102,-1.66014 -0.7617,-2.2461 -0.3386,-0.58592 -0.7878,-1.01561 -1.3477,-1.28906 -0.5469,-0.27342 -1.2109,-0.41014 -1.9922,-0.41016 -1.6146,2e-5 -2.7799,0.57294 -3.4961,1.71875 -0.7031,1.14585 -1.0547,2.96226 -1.0547,5.44922 0,2.51303 0.3581,4.34897 1.0743,5.50781 0.7291,1.14584 1.8033,1.71876 3.2226,1.71875 0.8073,10e-6 1.5039,-0.13671 2.0899,-0.41015 0.5859,-0.28646 1.0611,-0.72265 1.4257,-1.3086 0.3776,-0.58593 0.6511,-1.33462 0.8204,-2.24609 0.1822,-0.91145 0.2734,-1.99869 0.2734,-3.26172"
         style="font-variant:normal;font-weight:bold;font-stretch:normal;fill:#000000;font-family:Liberation Mono;-inkscape-font-specification:Liberation Mono Bold"
         id="path3090" />
      <path
         d="m 1271.0039,560.71444 c -0.612,-0.10415 -1.2565,-0.18879 -1.9336,-0.25391 -0.6641,-0.0781 -1.3997,-0.11717 -2.207,-0.11718 -1.0938,10e-6 -2.0573,0.22137 -2.8906,0.66406 -0.8204,0.44272 -1.5105,1.04819 -2.0704,1.8164 -0.5468,0.75523 -0.9635,1.64064 -1.25,2.65625 -0.2734,1.01564 -0.4101,2.09637 -0.4101,3.24219 l 0,8.55469 -5.4688,0 0,-13.69141 c 0,-0.72915 -0.039,-1.47134 -0.1171,-2.22656 -0.078,-0.75519 -0.1693,-1.46483 -0.2735,-2.12891 -0.1042,-0.67706 -0.2148,-1.28253 -0.332,-1.8164 -0.1172,-0.53384 -0.2149,-0.95701 -0.293,-1.26953 l 5.293,0 c 0.078,0.28648 0.1627,0.612 0.2539,0.97656 0.091,0.35158 0.1758,0.72919 0.2539,1.13281 0.078,0.39065 0.1497,0.78778 0.2148,1.19141 0.078,0.40366 0.1367,0.78778 0.1758,1.15234 l 0.078,0 c 0.2735,-0.74217 0.5925,-1.41274 0.9571,-2.01172 0.3776,-0.59894 0.8398,-1.10675 1.3867,-1.52343 0.5469,-0.41665 1.1979,-0.73566 1.9531,-0.95704 0.7552,-0.23435 1.6406,-0.35154 2.6563,-0.35156 0.7291,2e-5 1.4453,0.0326 2.1484,0.0977 0.7031,0.0651 1.3281,0.14325 1.875,0.23437 l 0,4.62891"
         style="font-variant:normal;font-weight:bold;font-stretch:normal;fill:#000000;font-family:Liberation Mono;-inkscape-font-specification:Liberation Mono Bold"
         id="path3092" />
      <path
         d="m 1280.2813,559.85506 -3.2618,0 0,-3.71093 3.5352,0 1.7187,-5.50782 3.4375,0 0,5.50782 7.5196,0 0,3.71093 -7.5196,0 0,10.35157 c 0,0.46875 0.013,0.91797 0.039,1.34765 0.039,0.4297 0.1627,0.81381 0.3711,1.15235 0.2213,0.32552 0.5599,0.59245 1.0156,0.80078 0.4688,0.19531 1.1263,0.29297 1.9727,0.29297 0.8333,0 1.6666,-0.0456 2.5,-0.13672 0.8333,-0.0911 1.6601,-0.22135 2.4804,-0.39063 l 0,3.63282 c -0.4817,0.0781 -0.9635,0.15625 -1.4453,0.23437 -0.4687,0.0781 -0.957,0.14323 -1.4648,0.19531 -0.4948,0.0651 -1.0222,0.11068 -1.582,0.13672 -0.56,0.0391 -1.1719,0.0586 -1.836,0.0586 -1.1198,0 -2.0833,-0.0911 -2.8906,-0.27344 -0.8073,-0.19531 -1.4909,-0.45573 -2.0508,-0.78125 -0.5469,-0.32552 -0.9961,-0.70964 -1.3476,-1.15235 -0.3386,-0.4427 -0.599,-0.91145 -0.7813,-1.40625 -0.1823,-0.5078 -0.306,-1.03515 -0.3711,-1.58203 -0.052,-0.54687 -0.078,-1.08723 -0.078,-1.62109 l 0.039,-10.85938"
         style="font-variant:normal;font-weight:bold;font-stretch:normal;fill:#000000;font-family:Liberation Mono;-inkscape-font-specification:Liberation Mono Bold"
         id="path3094" />
      <path
         d="m 1313.3672,573.566 6.8945,0 0,3.71094 -20.0976,0 0,-3.71094 7.7148,0 0,-13.71094 -5.6641,0 0,-3.71093 11.1524,0 0,17.42187 m -5.4883,-21.23047 0,-4.04297 5.4883,0 0,4.04297 -5.4883,0"
         style="font-variant:normal;font-weight:bold;font-stretch:normal;fill:#000000;font-family:Liberation Mono;-inkscape-font-specification:Liberation Mono Bold"
         id="path3096" />
      <path
         d="m 1337.9375,577.27694 0,-12.08984 c 0,-1.83593 -0.2539,-3.18358 -0.7617,-4.04297 -0.4948,-0.85936 -1.3542,-1.28905 -2.5781,-1.28907 -0.6641,2e-5 -1.2696,0.14976 -1.8164,0.44922 -0.5469,0.28648 -1.0157,0.70314 -1.4063,1.25 -0.3906,0.53387 -0.6966,1.1784 -0.918,1.9336 -0.2213,0.7422 -0.332,1.56251 -0.332,2.46093 l 0,11.32813 -5.4883,0 0,-16.40625 c 0,-0.45571 -0.01,-0.92446 -0.02,-1.40625 0,-0.48175 -0.013,-0.93748 -0.039,-1.36719 -0.013,-0.44269 -0.026,-0.83331 -0.039,-1.17187 -0.013,-0.35154 -0.033,-0.61196 -0.059,-0.78125 l 5.2343,0 c 0.026,0.15627 0.052,0.41017 0.078,0.76172 0.026,0.33856 0.052,0.71616 0.078,1.13281 0.026,0.41668 0.046,0.83335 0.059,1.25 0.026,0.41668 0.039,0.76824 0.039,1.05469 l 0.078,0 c 0.7422,-1.61457 1.6731,-2.78644 2.7929,-3.51563 1.1198,-0.72914 2.4545,-1.09373 4.004,-1.09375 1.1458,2e-5 2.1288,0.18882 2.9492,0.56641 0.8333,0.3646 1.5169,0.89845 2.0508,1.60156 0.5338,0.69012 0.9244,1.53648 1.1718,2.53906 0.2604,1.00262 0.3906,2.14194 0.3907,3.41797 l 0,13.41797 -5.4688,0"
         style="font-variant:normal;font-weight:bold;font-stretch:normal;fill:#000000;font-family:Liberation Mono;-inkscape-font-specification:Liberation Mono Bold"
         id="path3098" />
      <path
         d="m 1357.8594,585.7535 c -1.2891,-10e-6 -2.4414,-0.14324 -3.4571,-0.42969 -1.0026,-0.27344 -1.8685,-0.66407 -2.5976,-1.17187 -0.7162,-0.4948 -1.3021,-1.09376 -1.7578,-1.79688 -0.4427,-0.6901 -0.7487,-1.45182 -0.918,-2.28515 l 5.4883,-0.64453 c 0.1953,0.84635 0.5989,1.51692 1.2109,2.01172 0.612,0.49478 1.3412,0.74218 2.1875,0.74218 0.5469,0 1.0612,-0.0977 1.543,-0.29297 0.4948,-0.18229 0.9245,-0.49479 1.2891,-0.9375 0.3645,-0.42969 0.651,-1.00911 0.8593,-1.73828 0.2083,-0.71614 0.3125,-1.60156 0.3125,-2.65625 0,-0.36458 0,-0.74218 0,-1.13281 0,-0.40364 0.01,-0.77474 0.02,-1.11328 0.013,-0.39062 0.02,-0.77474 0.02,-1.15234 l -0.039,0 c -0.638,1.36719 -1.5169,2.35677 -2.6367,2.96875 -1.1198,0.61198 -2.3763,0.91796 -3.7695,0.91796 -1.237,0 -2.3177,-0.2539 -3.2422,-0.76171 -0.9245,-0.50782 -1.6927,-1.21745 -2.3047,-2.12891 -0.612,-0.92448 -1.0677,-2.03125 -1.3672,-3.32031 -0.2995,-1.28906 -0.4492,-2.72135 -0.4492,-4.29688 0,-1.62759 0.1562,-3.09894 0.4688,-4.41406 0.3255,-1.31509 0.8072,-2.44139 1.4453,-3.37891 0.651,-0.93748 1.4648,-1.66013 2.4414,-2.16797 0.9765,-0.50779 2.1158,-0.76169 3.4179,-0.76171 0.599,2e-5 1.1914,0.0716 1.7774,0.21484 0.5859,0.13023 1.1393,0.34507 1.6601,0.64453 0.5209,0.2995 0.9961,0.69012 1.4258,1.17188 0.4427,0.46876 0.8203,1.03517 1.1328,1.69921 l 0.098,0 c 0,-0.27341 0.01,-0.58591 0.02,-0.9375 0.026,-0.36456 0.052,-0.70961 0.078,-1.03515 0.026,-0.33852 0.052,-0.638 0.078,-0.89844 0.039,-0.26039 0.072,-0.43618 0.098,-0.52734 l 5.1953,0 c -0.026,0.46877 -0.052,1.12632 -0.078,1.97265 -0.026,0.84638 -0.039,1.81643 -0.039,2.91016 l 0,15.60547 c -10e-5,1.53646 -0.2214,2.87109 -0.6641,4.0039 -0.4427,1.14583 -1.0808,2.09635 -1.9141,2.85157 -0.8203,0.7552 -1.8229,1.3216 -3.0078,1.69922 -1.1849,0.37759 -2.526,0.56639 -4.0234,0.5664 m 4.1992,-19.33594 c 0,-1.32811 -0.1302,-2.42837 -0.3906,-3.30078 -0.2474,-0.8854 -0.573,-1.58852 -0.9766,-2.10937 -0.3906,-0.52082 -0.8268,-0.8854 -1.3086,-1.09375 -0.4818,-0.22134 -0.9505,-0.33202 -1.4062,-0.33203 -0.599,10e-6 -1.1459,0.13673 -1.6407,0.41015 -0.4948,0.26044 -0.9179,0.6771 -1.2695,1.25 -0.3516,0.55991 -0.625,1.27606 -0.8203,2.14844 -0.1823,0.87241 -0.2735,1.92059 -0.2734,3.14453 -10e-5,2.26564 0.3515,3.95183 1.0546,5.0586 0.7032,1.09375 1.6732,1.64062 2.9102,1.64062 0.4557,0 0.9245,-0.0977 1.4063,-0.29297 0.4947,-0.19531 0.9374,-0.54687 1.3281,-1.05469 0.4036,-0.52082 0.7356,-1.21744 0.9961,-2.08984 0.2604,-0.88541 0.3906,-2.01171 0.3906,-3.37891"
         style="font-variant:normal;font-weight:bold;font-stretch:normal;fill:#000000;font-family:Liberation Mono;-inkscape-font-specification:Liberation Mono Bold"
         id="path3100" />
      <path
         d="m 1413.875,577.27694 -4.7656,0 -2.793,-9.19922 c -0.2083,-0.67707 -0.3516,-1.18488 -0.4297,-1.52344 -0.052,-0.1953 -0.085,-0.35155 -0.098,-0.46875 -0.013,0.1172 -0.046,0.26694 -0.098,0.44922 -0.039,0.15626 -0.098,0.3646 -0.1758,0.625 -0.065,0.26043 -0.1627,0.59246 -0.2929,0.9961 l -2.8907,9.12109 -4.7461,0 -3.5742,-21.13281 4.4531,0 1.6211,11.85547 c 0.078,0.625 0.1563,1.32813 0.2344,2.10937 0.091,0.76824 0.1367,1.53646 0.1367,2.30469 0.052,-0.22135 0.1107,-0.45573 0.1758,-0.70313 0.065,-0.22134 0.1302,-0.46223 0.1953,-0.72265 0.078,-0.27343 0.1628,-0.54036 0.2539,-0.80078 l 2.8321,-8.86719 3.7695,0 2.7344,8.88672 c 0.078,0.26042 0.1497,0.52084 0.2148,0.78125 0.078,0.2474 0.1432,0.48177 0.1953,0.70312 0.052,0.2474 0.1042,0.48829 0.1563,0.72266 0,-0.78125 0.045,-1.54296 0.1367,-2.28516 0.091,-0.7552 0.1823,-1.46483 0.2734,-2.1289 l 1.7774,-11.85547 4.414,0 -3.7109,21.13281"
         style="font-variant:normal;font-weight:bold;font-stretch:normal;fill:#000000;font-family:Liberation Mono;-inkscape-font-specification:Liberation Mono Bold"
         id="path3102" />
      <path
         d="m 1439.9883,566.691 c 0,1.61459 -0.2019,3.09246 -0.6055,4.4336 -0.4037,1.34115 -1.0287,2.5 -1.875,3.47656 -0.8333,0.96354 -1.901,1.71875 -3.2031,2.26562 -1.2891,0.53386 -2.8255,0.80078 -4.6094,0.80078 -1.7187,0 -3.2096,-0.26692 -4.4726,-0.80078 -1.2631,-0.53385 -2.3178,-1.28255 -3.1641,-2.24609 -0.8333,-0.96354 -1.4583,-2.11588 -1.875,-3.45703 -0.4037,-1.35416 -0.6055,-2.84504 -0.6055,-4.47266 0,-1.57551 0.1953,-3.02733 0.586,-4.35547 0.3906,-1.34113 0.9961,-2.49998 1.8164,-3.47656 0.8333,-0.97654 1.8945,-1.73826 3.1836,-2.28516 1.302,-0.54685 2.8515,-0.82029 4.6484,-0.82031 1.901,2e-5 3.4961,0.27346 4.7852,0.82031 1.302,0.5469 2.3502,1.30862 3.1445,2.28516 0.8073,0.96356 1.3802,2.1159 1.7187,3.45703 0.3516,1.32814 0.5274,2.78647 0.5274,4.375 m -5.7422,0 c 0,-1.24999 -0.085,-2.3242 -0.2539,-3.22265 -0.1563,-0.91145 -0.4102,-1.66014 -0.7617,-2.2461 -0.3386,-0.58592 -0.7878,-1.01561 -1.3477,-1.28906 -0.5469,-0.27342 -1.2109,-0.41014 -1.9922,-0.41016 -1.6146,2e-5 -2.7799,0.57294 -3.4961,1.71875 -0.7031,1.14585 -1.0547,2.96226 -1.0547,5.44922 0,2.51303 0.3581,4.34897 1.0743,5.50781 0.7291,1.14584 1.8033,1.71876 3.2226,1.71875 0.8073,10e-6 1.5039,-0.13671 2.0899,-0.41015 0.5859,-0.28646 1.0611,-0.72265 1.4257,-1.3086 0.3776,-0.58593 0.6511,-1.33462 0.8204,-2.24609 0.1822,-0.91145 0.2734,-1.99869 0.2734,-3.26172"
         style="font-variant:normal;font-weight:bold;font-stretch:normal;fill:#000000;font-family:Liberation Mono;-inkscape-font-specification:Liberation Mono Bold"
         id="path3104" />
      <path
         d="m 1451.5508,577.27694 0,-12.85156 c 0,-0.98957 -0.033,-1.81639 -0.098,-2.48047 -0.052,-0.66405 -0.1432,-1.19139 -0.2734,-1.58203 -0.1302,-0.40363 -0.306,-0.69009 -0.5274,-0.85938 -0.2213,-0.16925 -0.4882,-0.25389 -0.8007,-0.2539 -0.3256,10e-6 -0.625,0.16277 -0.8985,0.48828 -0.2604,0.31251 -0.4818,0.76173 -0.664,1.34765 -0.1823,0.57294 -0.3256,1.26955 -0.4297,2.08985 -0.1042,0.82032 -0.1563,1.73178 -0.1563,2.73437 l 0,11.36719 -4.4726,0 0,-16.62109 c 0,-0.4427 -0.01,-0.90493 -0.02,-1.38672 0,-0.49478 -0.01,-0.95702 -0.02,-1.38672 -0.013,-0.44269 -0.026,-0.82029 -0.039,-1.13281 -0.013,-0.31248 -0.026,-0.51431 -0.039,-0.60547 l 4.082,0 c 0.013,0.0651 0.026,0.23439 0.039,0.50781 0.013,0.26044 0.026,0.56643 0.039,0.91797 0.013,0.33856 0.02,0.69012 0.02,1.05469 0.013,0.3646 0.02,0.6771 0.02,0.9375 l 0.039,0 c 0.1692,-0.5078 0.3711,-0.98957 0.6054,-1.44532 0.2344,-0.46873 0.5143,-0.87888 0.8399,-1.23047 0.3385,-0.35154 0.7356,-0.62497 1.1914,-0.82031 0.4557,-0.20831 0.983,-0.31248 1.582,-0.3125 1.1458,2e-5 1.9987,0.31252 2.5586,0.9375 0.5729,0.62502 0.9831,1.58856 1.2305,2.89063 l 0.039,0 c 0.2344,-0.61196 0.4883,-1.15233 0.7618,-1.6211 0.2864,-0.48175 0.6119,-0.88539 0.9765,-1.21093 0.3646,-0.3255 0.7813,-0.5729 1.25,-0.74219 0.4688,-0.16925 1.0091,-0.25389 1.6211,-0.25391 0.7943,2e-5 1.4648,0.14325 2.0117,0.42969 0.5469,0.28648 0.9896,0.72919 1.3282,1.32812 0.3385,0.59898 0.5794,1.36721 0.7226,2.30469 0.1562,0.93752 0.2344,2.06382 0.2344,3.37891 l 0,14.08203 -4.4531,0 0,-12.85156 c -10e-5,-0.98957 -0.033,-1.81639 -0.098,-2.48047 -0.052,-0.66405 -0.1432,-1.19139 -0.2734,-1.58203 -0.1303,-0.40363 -0.306,-0.69009 -0.5274,-0.85938 -0.2213,-0.16925 -0.4883,-0.25389 -0.8008,-0.2539 -0.664,10e-6 -1.1914,0.52736 -1.582,1.58203 -0.3776,1.04168 -0.5664,2.61069 -0.5664,4.70703 l 0,11.73828 -4.4531,0"
         style="font-variant:normal;font-weight:bold;font-stretch:normal;fill:#000000;font-family:Liberation Mono;-inkscape-font-specification:Liberation Mono Bold"
         id="path3106" />
      <path
         d="m 1477.9766,577.66756 c -1.5235,0 -2.9167,-0.22135 -4.1797,-0.66406 -1.2631,-0.45573 -2.3438,-1.13932 -3.2422,-2.05078 -0.8985,-0.92448 -1.6016,-2.07682 -2.1094,-3.45703 -0.4948,-1.39322 -0.7422,-3.02082 -0.7422,-4.88281 0,-2.01822 0.2865,-3.71744 0.8594,-5.09766 0.5859,-1.38019 1.3607,-2.49347 2.3242,-3.33984 0.9636,-0.85936 2.0638,-1.47785 3.3008,-1.85547 1.25,-0.37758 2.5391,-0.56639 3.8672,-0.56641 1.6666,2e-5 3.1054,0.29299 4.3164,0.87891 1.2239,0.57294 2.2396,1.38023 3.0469,2.42187 0.8072,1.04169 1.4062,2.29169 1.7968,3.75 0.3906,1.44533 0.586,3.04689 0.586,4.80469 l 0,0.15625 -14.336,0 c 0,0.88543 0.098,1.71225 0.293,2.48047 0.2083,0.75521 0.5078,1.41277 0.8985,1.97266 0.4036,0.54688 0.9049,0.98307 1.5039,1.30859 0.5989,0.3125 1.2955,0.46875 2.0898,0.46875 0.9635,0 1.8164,-0.20182 2.5586,-0.60547 0.7422,-0.41666 1.2435,-1.05468 1.5039,-1.91406 l 5.1758,0.44922 c -0.2344,0.59896 -0.586,1.23698 -1.0547,1.91406 -0.4558,0.67709 -1.0612,1.30209 -1.8164,1.875 -0.7552,0.5599 -1.6797,1.02865 -2.7734,1.40625 -1.0808,0.36458 -2.3699,0.54687 -3.8672,0.54687 m 0,-18.45703 c -0.5599,2e-5 -1.1068,0.0977 -1.6407,0.29297 -0.5208,0.18231 -0.9896,0.48179 -1.4062,0.89844 -0.4037,0.40366 -0.7357,0.93101 -0.9961,1.58203 -0.2604,0.65106 -0.4037,1.43231 -0.4297,2.34375 l 8.9844,0 c -0.052,-0.84634 -0.2084,-1.58853 -0.4688,-2.22656 -0.2474,-0.63801 -0.5729,-1.17186 -0.9765,-1.60156 -0.3907,-0.42967 -0.8529,-0.74868 -1.3867,-0.95704 -0.5209,-0.22133 -1.0808,-0.33201 -1.6797,-0.33203"
         style="font-variant:normal;font-weight:bold;font-stretch:normal;fill:#000000;font-family:Liberation Mono;-inkscape-font-specification:Liberation Mono Bold"
         id="path3108" />
      <path
         d="m 1505.8281,577.27694 0,-12.08984 c 0,-1.83593 -0.2539,-3.18358 -0.7617,-4.04297 -0.4948,-0.85936 -1.3542,-1.28905 -2.5781,-1.28907 -0.6641,2e-5 -1.2696,0.14976 -1.8164,0.44922 -0.5469,0.28648 -1.0157,0.70314 -1.4063,1.25 -0.3906,0.53387 -0.6966,1.1784 -0.9179,1.9336 -0.2214,0.7422 -0.3321,1.56251 -0.3321,2.46093 l 0,11.32813 -5.4883,0 0,-16.40625 c 0,-0.45571 -0.01,-0.92446 -0.019,-1.40625 0,-0.48175 -0.013,-0.93748 -0.039,-1.36719 -0.013,-0.44269 -0.026,-0.83331 -0.039,-1.17187 -0.013,-0.35154 -0.033,-0.61196 -0.059,-0.78125 l 5.2344,0 c 0.026,0.15627 0.052,0.41017 0.078,0.76172 0.026,0.33856 0.052,0.71616 0.078,1.13281 0.026,0.41668 0.046,0.83335 0.059,1.25 0.026,0.41668 0.039,0.76824 0.039,1.05469 l 0.078,0 c 0.7422,-1.61457 1.6732,-2.78644 2.793,-3.51563 1.1197,-0.72914 2.4544,-1.09373 4.0039,-1.09375 1.1458,2e-5 2.1289,0.18882 2.9492,0.56641 0.8333,0.3646 1.5169,0.89845 2.0508,1.60156 0.5338,0.69012 0.9244,1.53648 1.1719,2.53906 0.2603,1.00262 0.3906,2.14194 0.3906,3.41797 l 0,13.41797 -5.4688,0"
         style="font-variant:normal;font-weight:bold;font-stretch:normal;fill:#000000;font-family:Liberation Mono;-inkscape-font-specification:Liberation Mono Bold"
         id="path3110" />
      <path
         d="m 1100.5742,610.96835 -1.3476,6.32812 4.6289,0 0,2.91016 -5.2735,0 -1.5234,7.07031 -3.0273,0 1.5429,-7.07031 -6.0351,0 -1.5235,7.07031 -2.9883,0 1.5235,-7.07031 -3.3985,0 0,-2.91016 4.0235,0 1.3672,-6.32812 -4.4336,0 0,-2.89063 5.0586,0 1.5429,-7.14844 2.9883,0 -1.5234,7.14844 6.0156,0 1.543,-7.14844 2.9883,0 -1.5235,7.14844 3.6133,0 0,2.89063 -4.2383,0 m -9.0429,0 -1.3672,6.32812 6.0351,0 1.3672,-6.32812 -6.0351,0"
         style="font-variant:normal;font-weight:bold;font-stretch:normal;fill:#000000;font-family:Liberation Mono;-inkscape-font-specification:Liberation Mono Bold"
         id="path3112" />
      <path
         d="m 1150.0469,627.27694 -4.7656,0 -2.793,-9.19922 c -0.2084,-0.67707 -0.3516,-1.18488 -0.4297,-1.52344 -0.052,-0.1953 -0.085,-0.35155 -0.098,-0.46875 -0.013,0.1172 -0.045,0.26694 -0.098,0.44922 -0.039,0.15626 -0.098,0.3646 -0.1758,0.625 -0.065,0.26043 -0.1628,0.59246 -0.293,0.9961 l -2.8906,9.12109 -4.7461,0 -3.5742,-21.13281 4.4531,0 1.6211,11.85547 c 0.078,0.625 0.1563,1.32813 0.2344,2.10937 0.091,0.76824 0.1367,1.53646 0.1367,2.30469 0.052,-0.22135 0.1107,-0.45573 0.1758,-0.70313 0.065,-0.22134 0.1302,-0.46223 0.1953,-0.72265 0.078,-0.27343 0.1628,-0.54036 0.2539,-0.80078 l 2.832,-8.86719 3.7696,0 2.7343,8.88672 c 0.078,0.26042 0.1498,0.52084 0.2149,0.78125 0.078,0.2474 0.1432,0.48177 0.1953,0.70312 0.052,0.2474 0.1041,0.48829 0.1563,0.72266 -10e-5,-0.78125 0.045,-1.54296 0.1367,-2.28516 0.091,-0.7552 0.1822,-1.46483 0.2734,-2.1289 l 1.7774,-11.85547 4.414,0 -3.7109,21.13281"
         style="font-variant:normal;font-weight:bold;font-stretch:normal;fill:#000000;font-family:Liberation Mono;-inkscape-font-specification:Liberation Mono Bold"
         id="path3114" />
      <path
         d="m 1162.1563,610.36288 c 0.7421,-1.61457 1.6731,-2.78644 2.7929,-3.51563 1.1198,-0.72914 2.4544,-1.09373 4.0039,-1.09375 1.2761,2e-5 2.3307,0.20836 3.1641,0.625 0.8463,0.41669 1.5169,0.98961 2.0117,1.71875 0.5078,0.72919 0.8659,1.58856 1.0742,2.57813 0.2083,0.9896 0.3125,2.0573 0.3125,3.20312 l 0,13.39844 -5.4687,0 0,-12.12891 c 0,-0.8203 -0.046,-1.55597 -0.1367,-2.20703 -0.091,-0.65102 -0.2605,-1.20441 -0.5079,-1.66015 -0.2474,-0.45572 -0.5924,-0.80077 -1.0351,-1.03516 -0.4427,-0.24738 -1.0091,-0.37108 -1.6992,-0.37109 -0.6641,10e-6 -1.2696,0.14975 -1.8164,0.44921 -0.5339,0.28648 -0.9961,0.70315 -1.3868,1.25 -0.3906,0.53387 -0.6966,1.1784 -0.9179,1.9336 -0.2084,0.7422 -0.3125,1.56251 -0.3125,2.46094 l 0,11.30859 -5.4883,0 0,-28.98438 5.4883,0 0,7.91016 c 0,0.41669 -0.01,0.83986 -0.02,1.26953 -0.013,0.41669 -0.033,0.81382 -0.058,1.19141 -0.013,0.3646 -0.026,0.69663 -0.039,0.99609 -0.013,0.2995 -0.026,0.53387 -0.039,0.70313 l 0.078,0"
         style="font-variant:normal;font-weight:bold;font-stretch:normal;fill:#000000;font-family:Liberation Mono;-inkscape-font-specification:Liberation Mono Bold"
         id="path3116" />
      <path
         d="m 1200.1445,616.691 c 0,1.61459 -0.2018,3.09246 -0.6054,4.4336 -0.4037,1.34115 -1.0287,2.5 -1.875,3.47656 -0.8334,0.96354 -1.9011,1.71875 -3.2032,2.26562 -1.289,0.53386 -2.8255,0.80078 -4.6093,0.80078 -1.7188,0 -3.2097,-0.26692 -4.4727,-0.80078 -1.263,-0.53385 -2.3177,-1.28255 -3.1641,-2.24609 -0.8333,-0.96354 -1.4583,-2.11588 -1.875,-3.45703 -0.4036,-1.35416 -0.6054,-2.84504 -0.6054,-4.47266 0,-1.57551 0.1953,-3.02733 0.5859,-4.35547 0.3906,-1.34113 0.9961,-2.49998 1.8164,-3.47656 0.8333,-0.97654 1.8945,-1.73826 3.1836,-2.28516 1.3021,-0.54685 2.8516,-0.82029 4.6485,-0.82031 1.901,2e-5 3.496,0.27346 4.7851,0.82031 1.3021,0.5469 2.3502,1.30862 3.1445,2.28516 0.8073,0.96356 1.3802,2.1159 1.7188,3.45703 0.3515,1.32814 0.5273,2.78647 0.5273,4.375 m -5.7422,0 c 0,-1.24999 -0.085,-2.3242 -0.2539,-3.22265 -0.1562,-0.91145 -0.4101,-1.66014 -0.7617,-2.2461 -0.3385,-0.58592 -0.7878,-1.01561 -1.3476,-1.28906 -0.5469,-0.27342 -1.211,-0.41014 -1.9922,-0.41016 -1.6146,2e-5 -2.78,0.57294 -3.4961,1.71875 -0.7032,1.14585 -1.0547,2.96226 -1.0547,5.44922 0,2.51303 0.3581,4.34897 1.0742,5.50781 0.7292,1.14584 1.8034,1.71876 3.2227,1.71875 0.8072,10e-6 1.5039,-0.13671 2.0898,-0.41015 0.5859,-0.28646 1.0612,-0.72265 1.4258,-1.3086 0.3776,-0.58593 0.651,-1.33462 0.8203,-2.24609 0.1823,-0.91145 0.2734,-1.99869 0.2734,-3.26172"
         style="font-variant:normal;font-weight:bold;font-stretch:normal;fill:#000000;font-family:Liberation Mono;-inkscape-font-specification:Liberation Mono Bold"
         id="path3118" />
      <path
         d="m 1238.0938,627.66756 c -1.6797,0 -3.1511,-0.26041 -4.4141,-0.78125 -1.25,-0.52083 -2.2917,-1.2565 -3.125,-2.20703 -0.8333,-0.95051 -1.4583,-2.08984 -1.875,-3.41797 -0.4167,-1.34113 -0.625,-2.819 -0.625,-4.43359 0,-1.7578 0.2278,-3.3203 0.6836,-4.6875 0.4557,-1.38019 1.1133,-2.53904 1.9726,-3.47656 0.8594,-0.9505 1.9141,-1.67316 3.1641,-2.16797 1.263,-0.49477 2.6953,-0.74217 4.2969,-0.74219 1.3671,2e-5 2.5781,0.18232 3.6328,0.54688 1.0677,0.3646 1.9856,0.8659 2.7539,1.5039 0.7682,0.62502 1.3867,1.36721 1.8555,2.22657 0.4817,0.85939 0.8137,1.78387 0.9961,2.77343 l -5.5274,0.27344 c -0.1563,-1.08071 -0.5469,-1.94009 -1.1719,-2.57812 -0.625,-0.65103 -1.5104,-0.97655 -2.6562,-0.97657 -1.4714,2e-5 -2.5456,0.60549 -3.2227,1.81641 -0.6771,1.21095 -1.0156,2.96876 -1.0156,5.27344 0,4.86979 1.4388,7.30469 4.3164,7.30468 1.0417,10e-6 1.9141,-0.32551 2.6172,-0.97656 0.7031,-0.66406 1.1393,-1.64713 1.3086,-2.94922 l 5.5078,0.25391 c -0.1302,0.97657 -0.4297,1.91407 -0.8984,2.8125 -0.4558,0.88542 -1.0808,1.67318 -1.875,2.36328 -0.7813,0.67709 -1.7318,1.22396 -2.8516,1.64063 -1.1198,0.40364 -2.4024,0.60546 -3.8476,0.60546"
         style="font-variant:normal;font-weight:bold;font-stretch:normal;fill:#000000;font-family:Liberation Mono;-inkscape-font-specification:Liberation Mono Bold"
         id="path3120" />
      <path
         d="m 1272.0977,616.691 c -10e-5,1.61459 -0.2019,3.09246 -0.6055,4.4336 -0.4037,1.34115 -1.0287,2.5 -1.875,3.47656 -0.8334,0.96354 -1.9011,1.71875 -3.2031,2.26562 -1.2891,0.53386 -2.8256,0.80078 -4.6094,0.80078 -1.7188,0 -3.2097,-0.26692 -4.4727,-0.80078 -1.263,-0.53385 -2.3177,-1.28255 -3.164,-2.24609 -0.8334,-0.96354 -1.4584,-2.11588 -1.875,-3.45703 -0.4037,-1.35416 -0.6055,-2.84504 -0.6055,-4.47266 0,-1.57551 0.1953,-3.02733 0.5859,-4.35547 0.3907,-1.34113 0.9961,-2.49998 1.8164,-3.47656 0.8334,-0.97654 1.8946,-1.73826 3.1836,-2.28516 1.3021,-0.54685 2.8516,-0.82029 4.6485,-0.82031 1.901,2e-5 3.4961,0.27346 4.7851,0.82031 1.3021,0.5469 2.3503,1.30862 3.1446,2.28516 0.8072,0.96356 1.3801,2.1159 1.7187,3.45703 0.3516,1.32814 0.5273,2.78647 0.5274,4.375 m -5.7422,0 c 0,-1.24999 -0.085,-2.3242 -0.2539,-3.22265 -0.1563,-0.91145 -0.4102,-1.66014 -0.7618,-2.2461 -0.3385,-0.58592 -0.7877,-1.01561 -1.3476,-1.28906 -0.5469,-0.27342 -1.211,-0.41014 -1.9922,-0.41016 -1.6146,2e-5 -2.78,0.57294 -3.4961,1.71875 -0.7031,1.14585 -1.0547,2.96226 -1.0547,5.44922 0,2.51303 0.3581,4.34897 1.0742,5.50781 0.7292,1.14584 1.8034,1.71876 3.2227,1.71875 0.8073,10e-6 1.5039,-0.13671 2.0898,-0.41015 0.586,-0.28646 1.0612,-0.72265 1.4258,-1.3086 0.3776,-0.58593 0.651,-1.33462 0.8203,-2.24609 0.1823,-0.91145 0.2735,-1.99869 0.2735,-3.26172"
         style="font-variant:normal;font-weight:bold;font-stretch:normal;fill:#000000;font-family:Liberation Mono;-inkscape-font-specification:Liberation Mono Bold"
         id="path3122" />
      <path
         d="m 1289.832,627.27694 c -0.026,-0.10417 -0.059,-0.28646 -0.098,-0.54688 -0.026,-0.27343 -0.059,-0.57942 -0.098,-0.91796 -0.026,-0.33854 -0.052,-0.6836 -0.078,-1.03516 -0.013,-0.35156 -0.02,-0.66406 -0.02,-0.9375 l -0.078,0 c -0.6901,1.39323 -1.5429,2.38281 -2.5586,2.96875 -1.0156,0.57292 -2.22,0.85937 -3.6132,0.85937 -1.237,0 -2.3243,-0.27343 -3.2618,-0.82031 -0.9375,-0.54687 -1.7252,-1.30208 -2.3632,-2.26562 -0.625,-0.97656 -1.1003,-2.1289 -1.4258,-3.45703 -0.3125,-1.34114 -0.4688,-2.79947 -0.4688,-4.375 0,-1.60155 0.1563,-3.07291 0.4688,-4.41407 0.3125,-1.34113 0.7877,-2.49347 1.4258,-3.45703 0.638,-0.97654 1.4388,-1.73175 2.4023,-2.26562 0.9766,-0.54686 2.1224,-0.82029 3.4375,-0.82032 0.5859,3e-5 1.1719,0.0651 1.7578,0.19532 0.5859,0.13023 1.1393,0.34507 1.6602,0.64453 0.5338,0.28648 1.0156,0.67059 1.4453,1.15234 0.4427,0.46877 0.8203,1.0482 1.1328,1.73828 l 0.039,0 c -10e-5,-0.13019 -0.01,-0.31899 -0.02,-0.5664 0,-0.2604 0,-0.55337 0,-0.87891 0,-0.3255 -0.01,-0.66404 -0.02,-1.01562 0,-0.35155 0,-0.69009 0,-1.01563 l 0,-7.75391 5.4883,0 0,24.375 c 0,1.02865 0.02,1.94662 0.059,2.75391 0.039,0.79427 0.072,1.41276 0.098,1.85547 l -5.3125,0 m -0.2539,-10.66406 c 0,-1.39322 -0.1302,-2.54556 -0.3906,-3.45703 -0.2474,-0.92447 -0.5729,-1.65363 -0.9766,-2.1875 -0.4036,-0.53384 -0.8463,-0.90493 -1.3281,-1.11329 -0.4818,-0.22133 -0.957,-0.33201 -1.4258,-0.33203 -0.5989,2e-5 -1.1458,0.13674 -1.6406,0.41016 -0.4818,0.27345 -0.8984,0.70314 -1.25,1.28906 -0.3385,0.57293 -0.6055,1.31512 -0.8008,2.22656 -0.1823,0.91148 -0.2734,2.01174 -0.2734,3.30079 0,2.39584 0.3385,4.19271 1.0156,5.39062 0.6901,1.1849 1.6602,1.77735 2.9102,1.77734 0.4557,10e-6 0.9244,-0.11718 1.4062,-0.35156 0.4948,-0.23437 0.944,-0.6315 1.3477,-1.1914 0.4166,-0.55989 0.7552,-1.30859 1.0156,-2.2461 0.2604,-0.93749 0.3906,-2.10936 0.3906,-3.51562"
         style="font-variant:normal;font-weight:bold;font-stretch:normal;fill:#000000;font-family:Liberation Mono;-inkscape-font-specification:Liberation Mono Bold"
         id="path3124" />
      <path
         d="m 1310.0859,627.66756 c -1.5234,0 -2.9166,-0.22135 -4.1796,-0.66406 -1.2631,-0.45573 -2.3438,-1.13932 -3.2422,-2.05078 -0.8985,-0.92448 -1.6016,-2.07682 -2.1094,-3.45703 -0.4948,-1.39322 -0.7422,-3.02082 -0.7422,-4.88281 0,-2.01822 0.2865,-3.71744 0.8594,-5.09766 0.5859,-1.38019 1.3606,-2.49347 2.3242,-3.33984 0.9635,-0.85936 2.0638,-1.47785 3.3008,-1.85547 1.25,-0.37758 2.539,-0.56639 3.8672,-0.56641 1.6666,2e-5 3.1054,0.29299 4.3164,0.87891 1.2239,0.57294 2.2395,1.38023 3.0468,2.42187 0.8073,1.04169 1.4063,2.29169 1.7969,3.75 0.3906,1.44533 0.5859,3.04689 0.586,4.80469 l 0,0.15625 -14.336,0 c 0,0.88543 0.098,1.71225 0.293,2.48047 0.2083,0.75521 0.5078,1.41277 0.8984,1.97266 0.4037,0.54688 0.905,0.98307 1.5039,1.30859 0.599,0.3125 1.2956,0.46875 2.0899,0.46875 0.9635,0 1.8164,-0.20182 2.5586,-0.60547 0.7421,-0.41666 1.2434,-1.05468 1.5039,-1.91406 l 5.1758,0.44922 c -0.2344,0.59896 -0.586,1.23698 -1.0547,1.91406 -0.4558,0.67709 -1.0612,1.30209 -1.8164,1.875 -0.7553,0.5599 -1.6797,1.02865 -2.7735,1.40625 -1.0807,0.36458 -2.3698,0.54687 -3.8672,0.54687 m 0,-18.45703 c -0.5599,2e-5 -1.1067,0.0977 -1.6406,0.29297 -0.5208,0.18231 -0.9896,0.48179 -1.4062,0.89844 -0.4037,0.40366 -0.7357,0.93101 -0.9961,1.58203 -0.2605,0.65106 -0.4037,1.43231 -0.4297,2.34375 l 8.9844,0 c -0.052,-0.84634 -0.2084,-1.58853 -0.4688,-2.22656 -0.2474,-0.63801 -0.5729,-1.17186 -0.9766,-1.60156 -0.3906,-0.42967 -0.8528,-0.74868 -1.3867,-0.95704 -0.5208,-0.22133 -1.0807,-0.33201 -1.6797,-0.33203"
         style="font-variant:normal;font-weight:bold;font-stretch:normal;fill:#000000;font-family:Liberation Mono;-inkscape-font-specification:Liberation Mono Bold"
         id="path3126" />
    </g>
    <g
       transform="matrix(3.8619327,0,0,3.8619327,-3626.8853,-1735.5962)"
       style="font-size:40px;font-style:normal;font-weight:normal;fill:#000000;fill-opacity:1;stroke:none;display:inline;font-family:Bitstream Vera Sans"
       id="flowRoot3473-6-0">
      <path
         d="m 1092.7813,551.26059 c 2.6432,3e-5 4.72,1.52998 6.2304,4.58985 0.5469,1.21096 0.8333,2.13543 0.8594,2.77343 l 0.059,0 c 0.4557,-2.10935 1.2825,-3.86065 2.4805,-5.2539 1.4062,-1.40623 2.9882,-2.10935 4.7461,-2.10938 2.7213,3e-5 4.9023,1.45836 6.5429,4.375 0.4167,1.08075 0.625,2.09638 0.625,3.04688 0,3.25522 -1.3542,6.36069 -4.0625,9.3164 l -10.332,12.40235 -0.1172,0 -10.9766,-13.45703 c -2.1875,-2.66926 -3.2812,-5.42316 -3.2812,-8.26172 0,-2.74737 1.2956,-4.92836 3.8867,-6.54297 1.0937,-0.58591 2.207,-0.87888 3.3399,-0.87891"
         style="font-variant:normal;font-stretch:normal;fill:#000000;font-family:Courier 10 Pitch;-inkscape-font-specification:Courier 10 Pitch"
         id="path2860" />
    </g>
    <path
       style="fill:#000000;stroke:none"
       d="m 468.63655,376.24271 -11.80531,123.20669 -20.98722,0 -2.6234,34.10423 83.94887,-2.6234 2.62341,-32.72662 -28.85743,0 7.87021,-124.67753 31.48082,0 0,-28.85742 -89.19568,2.6234 0,28.85743 27.54573,0.0933 0,-4e-5 z"
       id="path3678"
       sodipodi:nodetypes="cccccccccccccc"
       inkscape:export-filename="/home/scaredofrabbits/Documents/pyladies-docs/t-shirts/t-shirts-06-18-2011.png"
       inkscape:export-xdpi="44.701157"
       inkscape:export-ydpi="44.701157" />
  </g>
</svg>
