<?xml version="1.0" encoding="UTF-8" standalone="no"?>
<!-- Created with Inkscape (http://www.inkscape.org/) -->

<svg
   xmlns:dc="http://purl.org/dc/elements/1.1/"
   xmlns:cc="http://creativecommons.org/ns#"
   xmlns:rdf="http://www.w3.org/1999/02/22-rdf-syntax-ns#"
   xmlns:svg="http://www.w3.org/2000/svg"
   xmlns="http://www.w3.org/2000/svg"
   xmlns:sodipodi="http://sodipodi.sourceforge.net/DTD/sodipodi-0.dtd"
   xmlns:inkscape="http://www.inkscape.org/namespaces/inkscape"
   width="990"
   height="765"
   id="svg2"
   version="1.1"
   inkscape:version="0.48.1 r9760"
   sodipodi:docname="la-oct2011-caltech.svg"
   inkscape:export-filename="/Users/audreyr/code/pyladies-kit/flyers/samples/la-oct2011-caltech.png"
   inkscape:export-xdpi="300"
   inkscape:export-ydpi="300"
   style="display:inline">
  <defs
     id="defs4">
    <inkscape:perspective
       sodipodi:type="inkscape:persp3d"
       inkscape:vp_x="0 : 526.18109 : 1"
       inkscape:vp_y="0 : 1000 : 0"
       inkscape:vp_z="744.09448 : 526.18109 : 1"
       inkscape:persp3d-origin="372.04724 : 350.78739 : 1"
       id="perspective10" />
    <inkscape:perspective
       id="perspective2867"
       inkscape:persp3d-origin="0.5 : 0.33333333 : 1"
       inkscape:vp_z="1 : 0.5 : 1"
       inkscape:vp_y="0 : 1000 : 0"
       inkscape:vp_x="0 : 0.5 : 1"
       sodipodi:type="inkscape:persp3d" />
    <inkscape:perspective
       id="perspective2889"
       inkscape:persp3d-origin="0.5 : 0.33333333 : 1"
       inkscape:vp_z="1 : 0.5 : 1"
       inkscape:vp_y="0 : 1000 : 0"
       inkscape:vp_x="0 : 0.5 : 1"
       sodipodi:type="inkscape:persp3d" />
    <inkscape:perspective
       id="perspective2980"
       inkscape:persp3d-origin="0.5 : 0.33333333 : 1"
       inkscape:vp_z="1 : 0.5 : 1"
       inkscape:vp_y="0 : 1000 : 0"
       inkscape:vp_x="0 : 0.5 : 1"
       sodipodi:type="inkscape:persp3d" />
    <inkscape:perspective
       id="perspective2838"
       inkscape:persp3d-origin="0.5 : 0.33333333 : 1"
       inkscape:vp_z="1 : 0.5 : 1"
       inkscape:vp_y="0 : 1000 : 0"
       inkscape:vp_x="0 : 0.5 : 1"
       sodipodi:type="inkscape:persp3d" />
    <inkscape:perspective
       id="perspective2891"
       inkscape:persp3d-origin="0.5 : 0.33333333 : 1"
       inkscape:vp_z="1 : 0.5 : 1"
       inkscape:vp_y="0 : 1000 : 0"
       inkscape:vp_x="0 : 0.5 : 1"
       sodipodi:type="inkscape:persp3d" />
    <inkscape:perspective
       id="perspective2919"
       inkscape:persp3d-origin="0.5 : 0.33333333 : 1"
       inkscape:vp_z="1 : 0.5 : 1"
       inkscape:vp_y="0 : 1000 : 0"
       inkscape:vp_x="0 : 0.5 : 1"
       sodipodi:type="inkscape:persp3d" />
    <inkscape:perspective
       id="perspective2862"
       inkscape:persp3d-origin="0.5 : 0.33333333 : 1"
       inkscape:vp_z="1 : 0.5 : 1"
       inkscape:vp_y="0 : 1000 : 0"
       inkscape:vp_x="0 : 0.5 : 1"
       sodipodi:type="inkscape:persp3d" />
    <inkscape:perspective
       id="perspective2887"
       inkscape:persp3d-origin="0.5 : 0.33333333 : 1"
       inkscape:vp_z="1 : 0.5 : 1"
       inkscape:vp_y="0 : 1000 : 0"
       inkscape:vp_x="0 : 0.5 : 1"
       sodipodi:type="inkscape:persp3d" />
    <inkscape:perspective
       id="perspective2953"
       inkscape:persp3d-origin="0.5 : 0.33333333 : 1"
       inkscape:vp_z="1 : 0.5 : 1"
       inkscape:vp_y="0 : 1000 : 0"
       inkscape:vp_x="0 : 0.5 : 1"
       sodipodi:type="inkscape:persp3d" />
    <inkscape:perspective
       id="perspective2984"
       inkscape:persp3d-origin="0.5 : 0.33333333 : 1"
       inkscape:vp_z="1 : 0.5 : 1"
       inkscape:vp_y="0 : 1000 : 0"
       inkscape:vp_x="0 : 0.5 : 1"
       sodipodi:type="inkscape:persp3d" />
    <inkscape:perspective
       id="perspective3018"
       inkscape:persp3d-origin="0.5 : 0.33333333 : 1"
       inkscape:vp_z="1 : 0.5 : 1"
       inkscape:vp_y="0 : 1000 : 0"
       inkscape:vp_x="0 : 0.5 : 1"
       sodipodi:type="inkscape:persp3d" />
    <inkscape:perspective
       id="perspective3046"
       inkscape:persp3d-origin="0.5 : 0.33333333 : 1"
       inkscape:vp_z="1 : 0.5 : 1"
       inkscape:vp_y="0 : 1000 : 0"
       inkscape:vp_x="0 : 0.5 : 1"
       sodipodi:type="inkscape:persp3d" />
    <inkscape:perspective
       id="perspective3078"
       inkscape:persp3d-origin="0.5 : 0.33333333 : 1"
       inkscape:vp_z="1 : 0.5 : 1"
       inkscape:vp_y="0 : 1000 : 0"
       inkscape:vp_x="0 : 0.5 : 1"
       sodipodi:type="inkscape:persp3d" />
  </defs>
  <sodipodi:namedview
     id="base"
     pagecolor="#ffffff"
     bordercolor="#666666"
     borderopacity="1.0"
     inkscape:pageopacity="0.0"
     inkscape:pageshadow="2"
     inkscape:zoom="0.82875817"
     inkscape:cx="424.11082"
     inkscape:cy="410.84076"
     inkscape:document-units="px"
     inkscape:current-layer="layer4"
     showgrid="false"
     inkscape:window-width="1440"
     inkscape:window-height="852"
     inkscape:window-x="0"
     inkscape:window-y="0"
     inkscape:window-maximized="1" />
  <metadata
     id="metadata7">
    <rdf:RDF>
      <cc:Work
         rdf:about="">
        <dc:format>image/svg+xml</dc:format>
        <dc:type
           rdf:resource="http://purl.org/dc/dcmitype/StillImage" />
        <dc:title></dc:title>
      </cc:Work>
    </rdf:RDF>
  </metadata>
  <g
     inkscape:groupmode="layer"
     id="layer10"
     inkscape:label="bg"
     transform="translate(-53.740112,404.59797)"
     style="display:inline" />
  <g
     inkscape:groupmode="layer"
     id="layer3"
     inkscape:label="comment"
     transform="translate(-317.84664,514.50548)"
     style="display:inline" />
  <g
     inkscape:groupmode="layer"
     id="layer2"
     inkscape:label="la1"
     style="display:none"
     transform="translate(-53.740112,404.59797)">
    <path
       style="fill:#000000;fill-opacity:1;stroke:none;display:inline"
       d="m 93.81348,88.834957 -4.08556,75.110403 51.42595,3.08556 1.58555,-17.18446 -37.02667,-3.08555 3.55703,-56.868913 -15.4563,-1.05704 z"
       id="path2847-1"
       sodipodi:nodetypes="ccccccc"
       inkscape:connector-curvature="0" />
    <path
       style="fill:#fa023c;fill-opacity:1;stroke:none;display:inline"
       d="m 90.81348,84.83496 -4.08556,75.1104 51.42595,3.08556 1.58555,-17.18446 -37.02667,-3.08555 3.55703,-56.868911 -15.4563,-1.057039 z"
       id="path2847"
       sodipodi:nodetypes="ccccccc"
       inkscape:connector-curvature="0" />
    <path
       style="fill:#000000;fill-opacity:1;stroke:none;display:inline"
       d="m 168.125,91.379587 -19.09375,74.250003 14.125,1.40625 7.09375,-26.875 12.71875,0.71875 4.25,26.15625 17.65625,0.6875 -19.09375,-76.343753 -17.65625,0 z m 8.78125,21.218753 3.9375,14.34375 -8,0 4.0625,-14.34375 z"
       id="path2849-6"
       inkscape:connector-curvature="0" />
    <path
       style="fill:#fa023c;fill-opacity:1;stroke:none;display:inline"
       d="m 165.125,87.37959 -19.09375,74.25 14.125,1.40625 7.09375,-26.875 12.71875,0.71875 4.25,26.15625 17.65625,0.6875 -19.09375,-76.34375 -17.65625,0 z m 8.78125,21.21875 3.9375,14.34375 -8,0 4.0625,-14.34375 z"
       id="path2849"
       inkscape:connector-curvature="0" />
  </g>
  <g
     inkscape:groupmode="layer"
     id="layer4"
     inkscape:label="la2"
     style="display:inline"
     transform="translate(-53.740112,404.59797)">
    <flowRoot
       xml:space="preserve"
       id="flowRoot2912"
       style="font-size:40px;font-style:normal;font-weight:normal;fill:#000000;fill-opacity:1;stroke:none;font-family:Bitstream Vera Sans"
       transform="matrix(0.92194214,0,0,0.92194214,237.93631,-185.91442)"><flowRegion
         id="flowRegion2914"><rect
           id="rect2916"
           width="236"
           height="151"
           x="25"
           y="-15.999989" /></flowRegion><flowPara
         id="flowPara2918"
         style="font-size:43.38468933px;font-style:normal;font-variant:normal;font-weight:300;font-stretch:normal;font-family:Helvetica CY;-inkscape-font-specification:Helvetica CY">los angeles</flowPara></flowRoot>    <flowRoot
       xml:space="preserve"
       id="flowRoot3160"
       style="font-size:144px;font-style:normal;font-variant:normal;font-weight:bold;font-stretch:normal;line-height:125%;letter-spacing:0px;word-spacing:0px;fill:#000000;fill-opacity:1;stroke:none;font-family:Helvetica CY;-inkscape-font-specification:Helvetica CY Bold"
       transform="matrix(0.78653535,0,0,0.78653535,193.91546,-378.42034)"><flowRegion
         id="flowRegion3162"><rect
           id="rect3164"
           width="577.97321"
           height="342.68137"
           x="466.96371"
           y="32.578865"
           style="font-size:144px;font-style:normal;font-variant:normal;font-weight:bold;font-stretch:normal;font-family:Helvetica CY;-inkscape-font-specification:Helvetica CY Bold" /></flowRegion><flowPara
         style="font-size:144px;font-style:normal;font-variant:normal;font-weight:bold;font-stretch:normal;line-height:104.99999523%;font-family:Helvetica CY;-inkscape-font-specification:Helvetica CY Bold"
         id="flowPara3168">Hack Day at Idealab</flowPara></flowRoot>    <flowRoot
       xml:space="preserve"
       id="flowRoot3197"
       style="font-size:40px;font-style:normal;font-weight:normal;line-height:125%;letter-spacing:0px;word-spacing:0px;fill:#000000;fill-opacity:1;stroke:none;font-family:Sans"
       transform="translate(71.839482,-464.9292)"><flowRegion
         id="flowRegion3199"><rect
           id="rect3201"
           width="925.48114"
           height="261.83752"
           x="53.091484"
           y="396.97949" /></flowRegion><flowPara
         id="flowPara3203"
         style="font-size:16px;font-style:normal;font-variant:normal;font-weight:normal;font-stretch:normal;font-family:Bitstream Vera Sans;-inkscape-font-specification:Bitstream Vera Sans">Bring your Python, Django, or other coding projects</flowPara><flowPara
         style="font-size:16px;font-style:normal;font-variant:normal;font-weight:normal;font-stretch:normal;font-family:Bitstream Vera Sans;-inkscape-font-specification:Bitstream Vera Sans"
         id="flowPara3211">Meet professional software engineers &amp; make industry connections</flowPara><flowPara
         style="font-size:16px;font-style:normal;font-variant:normal;font-weight:normal;font-stretch:normal;font-family:Bitstream Vera Sans;-inkscape-font-specification:Bitstream Vera Sans"
         id="flowPara3233">&quot;Learn Python the Hard Way&quot; study room for beginners</flowPara><flowPara
         style="font-size:16px;font-style:normal;font-variant:normal;font-weight:normal;font-stretch:normal;font-family:Bitstream Vera Sans;-inkscape-font-specification:Bitstream Vera Sans"
         id="flowPara3215">LinuxChix room: troubleshoot drivers, install Linux, play with free/open-source software</flowPara><flowPara
         style="font-size:16px;font-style:normal;font-variant:normal;font-weight:normal;font-stretch:normal;font-family:Bitstream Vera Sans;-inkscape-font-specification:Bitstream Vera Sans"
         id="flowPara3217" /><flowPara
         style="font-size:16px;font-style:normal;font-variant:normal;font-weight:normal;font-stretch:normal;font-family:Bitstream Vera Sans;-inkscape-font-specification:Bitstream Vera Sans"
         id="flowPara3229">PyLadies: Supporting women who code &amp; introducing Python programming to all who want to learn.  Helping Caltech women get into engineering careers.</flowPara></flowRoot>    <flowRoot
       xml:space="preserve"
       id="flowRoot3530"
       style="font-size:40px;font-style:normal;font-weight:normal;line-height:125%;letter-spacing:0px;word-spacing:0px;fill:#000000;fill-opacity:1;stroke:none;font-family:Sans"
       transform="matrix(0,-1,1,0,-422.26255,402.76353)"><flowRegion
         id="flowRegion3532"><rect
           id="rect3534"
           width="472.99686"
           height="77.223976"
           x="88.083595"
           y="544.18768" /></flowRegion><flowPara
         id="flowPara3536"
         style="font-size:10px">pyladies-idealab-october.eventbrite.com</flowPara><flowPara
         style="font-size:10px"
         id="flowPara3542">discount code: CALTECHSTUDENT</flowPara></flowRoot>    <flowRoot
       transform="matrix(0,-1,1,0,-380.09102,402.76353)"
       style="font-size:40px;font-style:normal;font-weight:normal;line-height:125%;letter-spacing:0px;word-spacing:0px;fill:#000000;fill-opacity:1;stroke:none;font-family:Sans"
       id="flowRoot3570"
       xml:space="preserve"><flowRegion
         id="flowRegion3572"><rect
           y="544.18768"
           x="88.083595"
           height="77.223976"
           width="472.99686"
           id="rect3574" /></flowRegion><flowPara
         style="font-size:10px"
         id="flowPara3576">pyladies-idealab-october.eventbrite.com</flowPara><flowPara
         id="flowPara3578"
         style="font-size:10px">discount code: CALTECHSTUDENT</flowPara></flowRoot>    <flowRoot
       xml:space="preserve"
       id="flowRoot3580"
       style="font-size:40px;font-style:normal;font-weight:normal;line-height:125%;letter-spacing:0px;word-spacing:0px;fill:#000000;fill-opacity:1;stroke:none;font-family:Sans"
       transform="matrix(0,-1,1,0,-337.9195,402.76353)"><flowRegion
         id="flowRegion3582"><rect
           id="rect3584"
           width="472.99686"
           height="77.223976"
           x="88.083595"
           y="544.18768" /></flowRegion><flowPara
         id="flowPara3586"
         style="font-size:10px">pyladies-idealab-october.eventbrite.com</flowPara><flowPara
         style="font-size:10px"
         id="flowPara3588">discount code: CALTECHSTUDENT</flowPara></flowRoot>    <flowRoot
       transform="matrix(0,-1,1,0,-295.74798,402.76353)"
       style="font-size:40px;font-style:normal;font-weight:normal;line-height:125%;letter-spacing:0px;word-spacing:0px;fill:#000000;fill-opacity:1;stroke:none;font-family:Sans"
       id="flowRoot3590"
       xml:space="preserve"><flowRegion
         id="flowRegion3592"><rect
           y="544.18768"
           x="88.083595"
           height="77.223976"
           width="472.99686"
           id="rect3594" /></flowRegion><flowPara
         style="font-size:10px"
         id="flowPara3596">pyladies-idealab-october.eventbrite.com</flowPara><flowPara
         id="flowPara3598"
         style="font-size:10px">discount code: CALTECHSTUDENT</flowPara></flowRoot>    <flowRoot
       xml:space="preserve"
       id="flowRoot3600"
       style="font-size:40px;font-style:normal;font-weight:normal;line-height:125%;letter-spacing:0px;word-spacing:0px;fill:#000000;fill-opacity:1;stroke:none;font-family:Sans"
       transform="matrix(0,-1,1,0,-253.57645,402.76353)"><flowRegion
         id="flowRegion3602"><rect
           id="rect3604"
           width="472.99686"
           height="77.223976"
           x="88.083595"
           y="544.18768" /></flowRegion><flowPara
         id="flowPara3606"
         style="font-size:10px">pyladies-idealab-october.eventbrite.com</flowPara><flowPara
         style="font-size:10px"
         id="flowPara3608">discount code: CALTECHSTUDENT</flowPara></flowRoot>    <flowRoot
       transform="matrix(0,-1,1,0,-211.4049,402.76353)"
       style="font-size:40px;font-style:normal;font-weight:normal;line-height:125%;letter-spacing:0px;word-spacing:0px;fill:#000000;fill-opacity:1;stroke:none;font-family:Sans"
       id="flowRoot3610"
       xml:space="preserve"><flowRegion
         id="flowRegion3612"><rect
           y="544.18768"
           x="88.083595"
           height="77.223976"
           width="472.99686"
           id="rect3614" /></flowRegion><flowPara
         style="font-size:10px"
         id="flowPara3616">pyladies-idealab-october.eventbrite.com</flowPara><flowPara
         id="flowPara3618"
         style="font-size:10px">discount code: CALTECHSTUDENT</flowPara></flowRoot>    <flowRoot
       xml:space="preserve"
       id="flowRoot3620"
       style="font-size:40px;font-style:normal;font-weight:normal;line-height:125%;letter-spacing:0px;word-spacing:0px;fill:#000000;fill-opacity:1;stroke:none;font-family:Sans"
       transform="matrix(0,-1,1,0,-169.23336,402.76353)"><flowRegion
         id="flowRegion3622"><rect
           id="rect3624"
           width="472.99686"
           height="77.223976"
           x="88.083595"
           y="544.18768" /></flowRegion><flowPara
         id="flowPara3626"
         style="font-size:10px">pyladies-idealab-october.eventbrite.com</flowPara><flowPara
         style="font-size:10px"
         id="flowPara3628">discount code: CALTECHSTUDENT</flowPara></flowRoot>    <flowRoot
       transform="matrix(0,-1,1,0,-127.06182,402.76353)"
       style="font-size:40px;font-style:normal;font-weight:normal;line-height:125%;letter-spacing:0px;word-spacing:0px;fill:#000000;fill-opacity:1;stroke:none;font-family:Sans"
       id="flowRoot3630"
       xml:space="preserve"><flowRegion
         id="flowRegion3632"><rect
           y="544.18768"
           x="88.083595"
           height="77.223976"
           width="472.99686"
           id="rect3634" /></flowRegion><flowPara
         style="font-size:10px"
         id="flowPara3636">pyladies-idealab-october.eventbrite.com</flowPara><flowPara
         id="flowPara3638"
         style="font-size:10px">discount code: CALTECHSTUDENT</flowPara></flowRoot>    <flowRoot
       xml:space="preserve"
       id="flowRoot3640"
       style="font-size:40px;font-style:normal;font-weight:normal;line-height:125%;letter-spacing:0px;word-spacing:0px;fill:#000000;fill-opacity:1;stroke:none;font-family:Sans"
       transform="matrix(0,-1,1,0,-84.890282,402.76353)"><flowRegion
         id="flowRegion3642"><rect
           id="rect3644"
           width="472.99686"
           height="77.223976"
           x="88.083595"
           y="544.18768" /></flowRegion><flowPara
         id="flowPara3646"
         style="font-size:10px">pyladies-idealab-october.eventbrite.com</flowPara><flowPara
         style="font-size:10px"
         id="flowPara3648">discount code: CALTECHSTUDENT</flowPara></flowRoot>    <flowRoot
       transform="matrix(0,-1,1,0,-42.718743,402.76353)"
       style="font-size:40px;font-style:normal;font-weight:normal;line-height:125%;letter-spacing:0px;word-spacing:0px;fill:#000000;fill-opacity:1;stroke:none;font-family:Sans"
       id="flowRoot3650"
       xml:space="preserve"><flowRegion
         id="flowRegion3652"><rect
           y="544.18768"
           x="88.083595"
           height="77.223976"
           width="472.99686"
           id="rect3654" /></flowRegion><flowPara
         style="font-size:10px"
         id="flowPara3656">pyladies-idealab-october.eventbrite.com</flowPara><flowPara
         id="flowPara3658"
         style="font-size:10px">discount code: CALTECHSTUDENT</flowPara></flowRoot>    <flowRoot
       xml:space="preserve"
       id="flowRoot3660"
       style="font-size:40px;font-style:normal;font-weight:normal;line-height:125%;letter-spacing:0px;word-spacing:0px;fill:#000000;fill-opacity:1;stroke:none;font-family:Sans"
       transform="matrix(0,-1,1,0,-0.54720383,402.76353)"><flowRegion
         id="flowRegion3662"><rect
           id="rect3664"
           width="472.99686"
           height="77.223976"
           x="88.083595"
           y="544.18768" /></flowRegion><flowPara
         id="flowPara3666"
         style="font-size:10px">pyladies-idealab-october.eventbrite.com</flowPara><flowPara
         style="font-size:10px"
         id="flowPara3668">discount code: CALTECHSTUDENT</flowPara></flowRoot>    <flowRoot
       transform="matrix(0,-1,1,0,41.624305,402.76353)"
       style="font-size:40px;font-style:normal;font-weight:normal;line-height:125%;letter-spacing:0px;word-spacing:0px;fill:#000000;fill-opacity:1;stroke:none;font-family:Sans"
       id="flowRoot3670"
       xml:space="preserve"><flowRegion
         id="flowRegion3672"><rect
           y="544.18768"
           x="88.083595"
           height="77.223976"
           width="472.99686"
           id="rect3674" /></flowRegion><flowPara
         style="font-size:10px"
         id="flowPara3676">pyladies-idealab-october.eventbrite.com</flowPara><flowPara
         id="flowPara3678"
         style="font-size:10px">discount code: CALTECHSTUDENT</flowPara></flowRoot>    <flowRoot
       xml:space="preserve"
       id="flowRoot3680"
       style="font-size:40px;font-style:normal;font-weight:normal;line-height:125%;letter-spacing:0px;word-spacing:0px;fill:#000000;fill-opacity:1;stroke:none;font-family:Sans"
       transform="matrix(0,-1,1,0,83.795814,402.76353)"><flowRegion
         id="flowRegion3682"><rect
           id="rect3684"
           width="472.99686"
           height="77.223976"
           x="88.083595"
           y="544.18768" /></flowRegion><flowPara
         id="flowPara3686"
         style="font-size:10px">pyladies-idealab-october.eventbrite.com</flowPara><flowPara
         style="font-size:10px"
         id="flowPara3688">discount code: CALTECHSTUDENT</flowPara></flowRoot>    <flowRoot
       transform="matrix(0,-1,1,0,125.96732,402.76353)"
       style="font-size:40px;font-style:normal;font-weight:normal;line-height:125%;letter-spacing:0px;word-spacing:0px;fill:#000000;fill-opacity:1;stroke:none;font-family:Sans"
       id="flowRoot3690"
       xml:space="preserve"><flowRegion
         id="flowRegion3692"><rect
           y="544.18768"
           x="88.083595"
           height="77.223976"
           width="472.99686"
           id="rect3694" /></flowRegion><flowPara
         style="font-size:10px"
         id="flowPara3696">pyladies-idealab-october.eventbrite.com</flowPara><flowPara
         id="flowPara3698"
         style="font-size:10px">discount code: CALTECHSTUDENT</flowPara></flowRoot>    <flowRoot
       xml:space="preserve"
       id="flowRoot3700"
       style="font-size:40px;font-style:normal;font-weight:normal;line-height:125%;letter-spacing:0px;word-spacing:0px;fill:#000000;fill-opacity:1;stroke:none;font-family:Sans"
       transform="matrix(0,-1,1,0,168.13883,402.76353)"><flowRegion
         id="flowRegion3702"><rect
           id="rect3704"
           width="472.99686"
           height="77.223976"
           x="88.083595"
           y="544.18768" /></flowRegion><flowPara
         id="flowPara3706"
         style="font-size:10px">pyladies-idealab-october.eventbrite.com</flowPara><flowPara
         style="font-size:10px"
         id="flowPara3708">discount code: CALTECHSTUDENT</flowPara></flowRoot>    <flowRoot
       transform="matrix(0,-1,1,0,210.31034,402.76353)"
       style="font-size:40px;font-style:normal;font-weight:normal;line-height:125%;letter-spacing:0px;word-spacing:0px;fill:#000000;fill-opacity:1;stroke:none;font-family:Sans"
       id="flowRoot3710"
       xml:space="preserve"><flowRegion
         id="flowRegion3712"><rect
           y="544.18768"
           x="88.083595"
           height="77.223976"
           width="472.99686"
           id="rect3714" /></flowRegion><flowPara
         style="font-size:10px"
         id="flowPara3716">pyladies-idealab-october.eventbrite.com</flowPara><flowPara
         id="flowPara3718"
         style="font-size:10px">discount code: CALTECHSTUDENT</flowPara></flowRoot>    <flowRoot
       xml:space="preserve"
       id="flowRoot3720"
       style="font-size:40px;font-style:normal;font-weight:normal;line-height:125%;letter-spacing:0px;word-spacing:0px;fill:#000000;fill-opacity:1;stroke:none;font-family:Sans"
       transform="matrix(0,-1,1,0,252.48185,402.76353)"><flowRegion
         id="flowRegion3722"><rect
           id="rect3724"
           width="472.99686"
           height="77.223976"
           x="88.083595"
           y="544.18768" /></flowRegion><flowPara
         id="flowPara3726"
         style="font-size:10px">pyladies-idealab-october.eventbrite.com</flowPara><flowPara
         style="font-size:10px"
         id="flowPara3728">discount code: CALTECHSTUDENT</flowPara></flowRoot>    <flowRoot
       transform="matrix(0,-1,1,0,294.65336,402.76353)"
       style="font-size:40px;font-style:normal;font-weight:normal;line-height:125%;letter-spacing:0px;word-spacing:0px;fill:#000000;fill-opacity:1;stroke:none;font-family:Sans"
       id="flowRoot3730"
       xml:space="preserve"><flowRegion
         id="flowRegion3732"><rect
           y="544.18768"
           x="88.083595"
           height="77.223976"
           width="472.99686"
           id="rect3734" /></flowRegion><flowPara
         style="font-size:10px"
         id="flowPara3736">pyladies-idealab-october.eventbrite.com</flowPara><flowPara
         id="flowPara3738"
         style="font-size:10px">discount code: CALTECHSTUDENT</flowPara></flowRoot>    <flowRoot
       xml:space="preserve"
       id="flowRoot3740"
       style="font-size:40px;font-style:normal;font-weight:normal;line-height:125%;letter-spacing:0px;word-spacing:0px;fill:#000000;fill-opacity:1;stroke:none;font-family:Sans"
       transform="matrix(0,-1,1,0,336.82487,402.76353)"><flowRegion
         id="flowRegion3742"><rect
           id="rect3744"
           width="472.99686"
           height="77.223976"
           x="88.083595"
           y="544.18768" /></flowRegion><flowPara
         id="flowPara3746"
         style="font-size:10px">pyladies-idealab-october.eventbrite.com</flowPara><flowPara
         style="font-size:10px"
         id="flowPara3748">discount code: CALTECHSTUDENT</flowPara></flowRoot>    <flowRoot
       transform="matrix(0,-1,1,0,378.99638,402.76353)"
       style="font-size:40px;font-style:normal;font-weight:normal;line-height:125%;letter-spacing:0px;word-spacing:0px;fill:#000000;fill-opacity:1;stroke:none;font-family:Sans"
       id="flowRoot3750"
       xml:space="preserve"><flowRegion
         id="flowRegion3752"><rect
           y="544.18768"
           x="88.083595"
           height="77.223976"
           width="472.99686"
           id="rect3754" /></flowRegion><flowPara
         style="font-size:10px"
         id="flowPara3756">pyladies-idealab-october.eventbrite.com</flowPara><flowPara
         id="flowPara3758"
         style="font-size:10px">discount code: CALTECHSTUDENT</flowPara></flowRoot>    <flowRoot
       xml:space="preserve"
       id="flowRoot3760"
       style="font-size:40px;font-style:normal;font-weight:normal;line-height:125%;letter-spacing:0px;word-spacing:0px;fill:#000000;fill-opacity:1;stroke:none;font-family:Sans"
       transform="matrix(0,-1,1,0,421.16788,402.76353)"><flowRegion
         id="flowRegion3762"><rect
           id="rect3764"
           width="472.99686"
           height="77.223976"
           x="88.083595"
           y="544.18768" /></flowRegion><flowPara
         id="flowPara3766"
         style="font-size:10px">pyladies-idealab-october.eventbrite.com</flowPara><flowPara
         style="font-size:10px"
         id="flowPara3768">discount code: CALTECHSTUDENT</flowPara></flowRoot>    <flowRoot
       transform="matrix(0.78653535,0,0,0.78653535,-47.409468,-145.54179)"
       style="font-size:144px;font-style:normal;font-variant:normal;font-weight:bold;font-stretch:normal;line-height:125%;letter-spacing:0px;word-spacing:0px;fill:#000000;fill-opacity:1;stroke:none;font-family:Helvetica CY;-inkscape-font-specification:Helvetica CY Bold"
       id="flowRoot3158"
       xml:space="preserve"><flowRegion
         id="flowRegion3160"><rect
           style="font-size:144px;font-style:normal;font-variant:normal;font-weight:bold;font-stretch:normal;font-family:Helvetica CY;-inkscape-font-specification:Helvetica CY Bold"
           y="32.578865"
           x="466.96371"
           height="308.93115"
           width="676.15564"
           id="rect3162" /></flowRegion><flowPara
         id="flowPara3164"
         style="font-size:40.68475723px;font-style:normal;font-variant:normal;font-weight:bold;font-stretch:normal;line-height:104.99999523%;font-family:Helvetica CY;-inkscape-font-specification:Helvetica CY Bold">Saturday, Oct. 22, 2011  9:30 AM - 5 PM</flowPara></flowRoot>  </g>
  <g
     inkscape:groupmode="layer"
     id="layer6"
     inkscape:label="la3"
     style="display:none"
     transform="translate(-53.740112,404.59797)">
    <path
       id="path2930"
       style="font-size:40px;font-style:normal;font-variant:normal;font-weight:bold;font-stretch:normal;fill:#000000;fill-opacity:1;stroke:none;font-family:Helvetica LT;-inkscape-font-specification:Helvetica LT Bold"
       d="m 124.37407,115.36352 26.9751,0 0,9.82286 -38.30917,0 0,-54.252434 11.33407,0 0,44.429574"
       inkscape:connector-curvature="0" />
    <path
       id="path2932"
       style="font-size:40px;font-style:normal;font-variant:normal;font-weight:bold;font-stretch:normal;fill:#000000;fill-opacity:1;stroke:none;font-family:Helvetica LT;-inkscape-font-specification:Helvetica LT Bold"
       d="m 156.73988,116.63393 13.82755,0 -6.72487,-21.459184 -0.15112,0 -6.95156,21.459184 m -6.80046,20.55245 -11.93855,0 19.34349,-54.252434 13.07197,0 19.11678,54.252434 -12.31634,0 -3.47578,-11.18295 -20.02353,0 -3.77804,11.18295"
       inkscape:connector-curvature="0" />
  </g>
  <g
     inkscape:groupmode="layer"
     id="layer7"
     inkscape:label="la4"
     style="display:none"
     transform="translate(-53.740112,404.59797)">
    <flowRoot
       xml:space="preserve"
       id="flowRoot2937-3"
       style="font-size:40px;font-style:italic;font-weight:normal;fill:#000000;fill-opacity:1;stroke:none;display:inline;font-family:Bitstream Vera Sans;-inkscape-font-specification:Helvetica LT Bold Italic"
       transform="matrix(1.5631857,0,0,1.5631857,7.0243192,33.635255)"><flowRegion
         id="flowRegion2939-5"><rect
           id="rect2941-7"
           width="137"
           height="76"
           x="60"
           y="24.00001"
           style="font-style:italic;fill:#000000;fill-opacity:1;-inkscape-font-specification:Helvetica LT Bold Italic" /></flowRegion><flowPara
         id="flowPara2943-7"
         style="font-style:italic;font-variant:normal;font-weight:bold;font-stretch:normal;fill:#000000;fill-opacity:1;font-family:Helvetica LT;-inkscape-font-specification:Helvetica LT Bold Italic">LA</flowPara></flowRoot>    <flowRoot
       xml:space="preserve"
       id="flowRoot2937"
       style="font-size:40px;font-style:italic;font-weight:normal;fill:#fa023c;fill-opacity:1;stroke:none;display:inline;font-family:Bitstream Vera Sans;-inkscape-font-specification:Helvetica LT Bold Italic"
       transform="matrix(1.5631857,0,0,1.5631857,3.7314332,32.342362)"><flowRegion
         id="flowRegion2939"><rect
           id="rect2941"
           width="137"
           height="76"
           x="60"
           y="24.00001"
           style="font-style:italic;fill:#fa023c;fill-opacity:1;-inkscape-font-specification:Helvetica LT Bold Italic" /></flowRegion><flowPara
         id="flowPara2943"
         style="font-style:italic;font-variant:normal;font-weight:bold;font-stretch:normal;fill:#fa023c;fill-opacity:1;font-family:Helvetica LT;-inkscape-font-specification:Helvetica LT Bold Italic">LA</flowPara></flowRoot>  </g>
  <g
     inkscape:groupmode="layer"
     id="layer11"
     inkscape:label="palm0"
     style="display:none"
     transform="translate(0,417.10346)">
    <path
       style="fill:#000000;stroke:none;display:inline"
       d="m 577.94372,286.6388 c 0,0 15.9789,-84.06866 9.71671,-111.90064 -7.18481,-31.93248 -34.06523,-70.9128 -34.06523,-70.9128 l 5.77682,2.8129 -0.37761,-4.43436 c 1.78535,1.48202 5.34103,5.8892 8.14145,6.86369 -0.13512,-1.30234 -0.51824,-4.12636 1.14283,-4.14243 l 6.55479,7.19364 c 1.03245,-0.48795 -0.45709,-6.03409 -0.45709,-6.03409 l 8.682,-0.20096 c -2.13408,-2.3854 -6.84649,-3.08483 -9.1377,-3.45753 -1.03433,-0.68247 3.26001,-1.67507 2.46778,-1.86787 -1.59915,-0.38915 -5.18839,-1.687105 -9.22788,0.12757 -0.50061,-1.767165 0.20954,-2.489265 1.57333,-3.907375 -4.32963,-0.76851 -9.1633,0.53145 -11.55382,1.29031 l 1.9796,-2.92633 -9.00278,1.23876 0.74105,-1.805 11.29179,-3.81944 c 2.64532,3.19151 8.76478,6.8413 13.93257,6.676 -1.87237,-2.87038 -2.31417,-3.91542 -1.60602,-6.66282 2.66826,3.1888 5.83982,5.37777 13.25415,6.45719 -0.88123,-2.46961 -2.44566,-3.95285 1.87871,-6.94302 1.28936,4.23374 4.094,8.64418 10.60707,9.22133 0.3356,-3.2972 -0.30023,-5.19735 0.19643,-8.49455 l 12.61677,-4.548903 c -5.00343,-3.060842 -8.70435,-3.067846 -10.30069,-2.735984 -3.22783,0.671036 -6.16712,0.370544 -10.51752,2.268049 -0.61721,-2.113528 1.93295,-4.815091 4.89579,-6.926326 -9.80142,0.992729 -19.18086,6.7171 -19.18086,6.7171 -1.52499,-1.143751 1.60225,-2.917421 4.68185,-4.549381 0,0 -14.36797,1.183719 -21.37575,4.131824 -0.80025,-2.112415 2.56905,-3.580029 5.07495,-6.194501 -10.45688,-0.421826 -15.04495,3.916227 -21.73302,6.091751 0,0 10.97679,-14.96835 18.1616,-14.170038 7.18481,0.798313 15.16793,8.781432 15.16793,8.781432 l -3.99155,-14.369616 15.96623,11.97468 -3.99156,-14.369616 17.56287,12.772991 -5.58819,-14.369614 16.76455,-7.184808 c -7.64255,-2.607008 -15.79707,-3.16617 -24.94137,0.23382 -0.78267,-2.194542 5.66491,-6.196643 10.57176,-9.813564 -10.44222,-1.05929 -17.87412,2.898633 -23.81239,9.345924 -1.68474,-1.933884 1.14322,-6.876239 3.85459,-11.74086 -9.50193,3.945812 -17.65969,8.899746 -21.18363,17.329043 -2.65561,-4.445828 -0.48871,-8.891655 2.82246,-13.337483 -0.27742,-0.739771 -32.46508,13.215483 -29.53755,27.940919 0.94687,4.762732 0.1937,10.241086 0.1937,10.241086 4.83722,-2.976752 -14.22423,-7.34694 -37.52066,-1.596623 -10.53955,2.601504 -15.70314,14.392748 -15.36163,14.506588 l 11.97468,0.79831 c -9.68927,5.603875 -15.52553,13.776425 -20.75611,22.352745 6.01868,-4.5419 11.31584,-5.47614 15.82927,-2.49179 l -15.82927,20.05465 15.16792,-7.98312 7.18481,11.97468 c 4.26552,-7.84222 4.46354,-17.7182 2.72561,-28.56214 2.79049,3.71929 5.53707,7.52641 6.85414,14.19253 4.44917,-7.35516 1.35746,-21.30322 3.19324,-31.658555 l 3.99157,14.095685 c 3.82185,-8.53015 10.11312,-19.300295 18.36117,-17.562875 4.20673,0.88614 3.19325,5.58819 3.19325,5.58819 l -11.97468,11.974685 7.18481,-0.79831 -13.57131,10.37806 12.77299,-2.39494 -15.96623,16.76455 11.17636,-1.59662 4.78987,11.97468 3.19325,-16.76455 6.38649,8.78143 -0.7983,-21.55443 4.78987,3.99156 0.79832,-8.78143 c 12.05577,12.05578 33.60091,44.21007 35.92403,70.25145 0.79085,8.86522 1.2485,37.25725 -2.30944,58.75752 -4.56606,27.59215 -13.55439,48.21629 -13.6568,48.21629 l 17.56286,-0.79832 z"
       id="path3008"
       sodipodi:nodetypes="cscccccccccsccccccccccccccscccccccscccccccccccccscscccccccccccscccccccccccccsscc"
       inkscape:connector-curvature="0" />
  </g>
  <g
     inkscape:groupmode="layer"
     id="layer8"
     inkscape:label="palm"
     style="display:inline"
     transform="translate(-53.740112,404.59797)">
    <path
       style="fill:#000000;stroke:none;display:inline"
       d="m -50.457888,-173.88202 c 0,0 7.9789,-57.06867 1.71671,-84.90065 -7.18481,-31.93248 -34.06523,-70.9128 -34.06523,-70.9128 l 5.77682,2.81289 -0.37761,-4.43435 c 1.78535,1.48202 5.34103,5.88919 8.14145,6.86369 -0.13512,-1.30234 -0.51824,-4.12637 1.14283,-4.14243 l 6.55479,7.19363 c 1.03245,-0.48795 -0.45709,-6.03409 -0.45709,-6.03409 l 8.682,-0.20096 c -2.13408,-2.38539 -6.84649,-3.08482 -9.1377,-3.45752 -1.03433,-0.68247 3.26001,-1.67508 2.46778,-1.86787 -1.59915,-0.38915 -5.18839,-1.6871 -9.22788,0.12756 -0.50061,-1.76715 0.20954,-2.48925 1.57333,-3.90737 -4.32963,-0.76851 -9.1633,0.53145 -11.55382,1.29032 l 1.9796,-2.92634 -9.00278,1.23877 0.74105,-1.805 11.29179,-3.81944 c 2.64532,3.1915 8.76478,6.8413 13.93257,6.676 -1.87237,-2.87038 -2.31417,-3.91543 -1.60602,-6.66282 2.66826,3.1888 5.83982,5.37776 13.25415,6.45719 -0.88123,-2.46962 -2.44566,-3.95285 1.87871,-6.94302 1.28936,4.23374 4.094,8.64418 10.60707,9.22132 0.3356,-3.29719 -0.30023,-5.19735 0.19643,-8.49454 l 12.61677,-4.5489 c -5.00343,-3.06085 -8.70435,-3.06785 -10.30069,-2.73599 -3.22783,0.67104 -6.16712,0.37055 -10.51752,2.26805 -0.61721,-2.11353 1.93295,-4.81509 4.89579,-6.92632 -9.80142,0.99272 -19.18086,6.7171 -19.18086,6.7171 -1.52499,-1.14376 1.60225,-2.91743 4.68185,-4.54939 0,0 -14.36797,1.18372 -21.37575,4.13183 -0.80025,-2.11242 2.56905,-3.58003 5.07495,-6.1945 -10.45688,-0.42183 -15.04495,3.91622 -21.73302,6.09175 0,0 10.97679,-14.96835 18.1616,-14.17004 7.18481,0.79831 15.16793,8.78143 15.16793,8.78143 l -3.99155,-14.36961 15.96623,11.97468 -3.99156,-14.36962 17.56287,12.77299 -5.58819,-14.36961 16.76455,-7.18481 c -7.64255,-2.60701 -15.79707,-3.16617 -24.94137,0.23382 -0.78267,-2.19454 5.66491,-6.19664 10.57176,-9.81356 -10.44222,-1.05929 -17.87412,2.89863 -23.81239,9.34592 -1.68474,-1.93388 1.14322,-6.87624 3.85459,-11.74086 -9.50193,3.94581 -17.65969,8.89975 -21.18363,17.32904 -2.65561,-4.44583 -0.48871,-8.89165 2.82246,-13.33748 -0.27742,-0.73977 -32.465082,13.21548 -29.537552,27.94092 0.94687,4.76273 0.1937,10.24108 0.1937,10.24108 4.837222,-2.97675 -14.22423,-7.34694 -37.52066,-1.59662 -10.53955,2.60151 -15.70314,14.39275 -15.36163,14.50658 l 11.97468,0.79831 c -9.68927,5.60388 -15.52553,13.77642 -20.75611,22.35275 6.01868,-4.5419 11.31584,-5.47615 15.82927,-2.49179 l -15.82927,20.05465 15.16792,-7.98313 7.18481,11.97469 c 4.26552,-7.84222 4.46354,-17.71821 2.72561,-28.56215 2.79049,3.71929 5.53707,7.52642 6.85414,14.19253 4.44917,-7.35516 1.35746,-21.30322 3.19324,-31.65855 l 3.99157,14.09569 c 3.82185,-8.53015 10.11312,-19.30029 18.36117,-17.56287 4.20673,0.88613 3.19325,5.58818 3.19325,5.58818 l -11.97468,11.97469 7.18481,-0.79832 -13.57131,10.37806 12.77299,-2.39493 -15.96623,16.76455 11.17636,-1.59663 4.78987,11.97469 3.19325,-16.76456 6.38649,8.78144 -0.7983,-21.55443 4.789872,3.99156 0.79832,-8.78143 c 12.05577,12.05577 33.60091,44.21007 35.92403,70.25145 0.79085,8.86522 1.2485,37.25725 -2.30944,58.75753 -4.56606,27.59215 -5.55439,21.21629 -5.6568,21.21629 l 17.56286,-0.79832 z"
       id="path3008-2"
       sodipodi:nodetypes="cscccccccccsccccccccccccccscccccccscccccccccccccscscccccccccccscccccccccccccsscc"
       inkscape:connector-curvature="0" />
  </g>
  <g
     inkscape:groupmode="layer"
     id="layer9"
     inkscape:label="snake"
     style="display:none"
     transform="translate(-53.740112,404.59797)">
    <path
       style="fill:#fa023c;fill-opacity:1;stroke:none;display:inline"
       d="m 176.77669,118.57151 c 0,0 9.83077,3.19003 12.55115,2.82843 6.03186,-0.80178 7.99417,-5.35509 7.99417,-5.35509 l -0.0392,3.41054 3.18199,0 c 0,0 -4.0384,4.22523 -10.96016,4.94975 0,0 0,0 0,0 -3.88826,0.1698 -15.02603,-2.12132 -15.02603,-2.12132 l -0.35355,-3.88909 2.65165,0.17678 z"
       id="path3036"
       sodipodi:nodetypes="cscccssccc"
       inkscape:connector-curvature="0" />
    <path
       style="fill:#000000;stroke:none;display:inline"
       d="m 112,234 c 0,0 -33.000002,-18.99999 -18.999999,-47.99999 13.999999,-29 55.999999,-19 55.999999,-30 0,-11 -26,-20 -16,-40 10,-20.000006 40.74903,-29.138901 55.99999,-10.5 3.9819,4.86646 3.15522,5.60646 2.90562,9.86318 -0.1079,1.84014 -7.26766,3.57992 -16.74846,4.43791 -0.95292,3.02726 8.27472,4.3004 10.05438,6.10807 4.40257,4.47186 -14.6225,4.50083 -19.21154,4.09084 -8.03026,-0.71744 1.68017,16.13929 9,23 7.35141,6.89032 15.46465,19.65801 -6,30 -9.27516,4.46891 -40.99999,3 -47.99999,12 -3.73445,4.80144 -1,16 6,22.99999 7,7 22,12 28,5 6,-6.99999 3,-17.99999 3,-17.99999 0,0 15.99999,8 11.99999,18.99999 -4,11 -17.99999,19 -28.99999,18 -11,-1 -30,-7 -29,-8 z"
       id="path3032"
       sodipodi:nodetypes="cssssscssssssscssc"
       inkscape:connector-curvature="0" />
    <path
       style="fill:#fa023c;fill-opacity:1;stroke:none;display:inline"
       d="m 161.5,108.00001 23.36636,-7.65391 c 0.18197,-0.0743 -0.089,0.20227 -1.70316,-0.17329 -0.68738,-0.420723 -2.07093,-1.284654 -3.63059,-2.098405 -0.29778,-0.155364 8.18513,0.215091 8.46738,0.925546 -0.12648,-0.379434 6.56429,5.460619 0.35355,10.232239 C 183.03404,113.3191 179,108.99996 179,108.99996 c 0,0 0.43012,4.66515 -5.58579,6.23223 -5.19928,1.35436 -9.52711,-3.08089 -11.93564,-4.79241 -0.66715,-0.47409 -15.66033,-2.1322 -21.20211,-3.28355 -1.06407,-1.07979 -1.17651,-2.1704 0.47928,-2.13844 1.93085,0.0373 21.13923,3.31033 20.74426,2.98217 l 0,5e-5 z"
       id="path3034"
       sodipodi:nodetypes="cccscscsscscc"
       inkscape:connector-curvature="0" />
  </g>
  <g
     inkscape:groupmode="layer"
     id="layer5"
     inkscape:label="shadow"
     style="display:inline"
     transform="translate(-56.717132,641.89393)">
    <g
       id="g2858"
       transform="matrix(1.1110604,0,0,1.1110604,129.02461,-557.57424)"
       style="fill:#000000">
      <path
         sodipodi:nodetypes="ccsccczsscsccccscccscssccccccscsccccscscsccccccccscscsccssccccccsccsccsccczczcccssccccsccssccccscc"
         id="path2841-2"
         d="M 145.8125,0.50000432 C 123.74597,1.6523143 126.78125,69.375004 126.78125,69.375004 c 0,0 -0.93703,7.47672 -4.09375,11.78125 -3.15673,4.30452 -8.44519,7.38215 -9.78125,6.03125 l 8.21875,-36.1875 -12.125,0 c 0,6.4e-4 -6.46018,36.223795 -13.53125,37.5625 -7.07107,1.338705 -5.063295,-6.05393 -5.063292,-13.630076 4e-6,-11.157502 1.519512,-23.391014 -6.561708,-24.401174 -8.08122,-1.01016 -16.6875,12.78125 -16.6875,12.78125 0,0 1.01872,-8.08439 -7.0625,-12.125 -8.08122,-4.04061 -28.28125,6.0625 -28.28125,6.0625 1.881521,-8.531888 -1.534797,-19.292188 -11.125,-19.1875 C 12.218554,38.573818 6.2509254,44.468939 0.5,49.156254 l 8.09375,8.09375 c 0,0 8.05314,-9.08202 12.09375,-4.03125 4.04061,5.05076 -15.5535714,98.825896 -15.5535714,98.825896 l 12.1250004,0 11.522321,-48.32589 c 0,0 26.26174,2.02967 31.3125,-4.031256 5.05076,-6.06091 9.09375,-22.21875 9.09375,-22.21875 0,0 11.119129,-12.143721 10.108979,-8.103111 -1.01015,4.04061 -2.034749,31.311717 3.016021,32.321867 5.05076,1.01015 15.15625,0 15.15625,0 l -12.25,39.28125 -14,1.125 -2.03125,10.125 23.25,0 16.3125,-50.78125 c 0,0 7.3219,-1.04918 11.46875,-3.312506 4.14685,-2.26332 7.38586,-6.26897 10.375,-9.25 0.65827,5.06127 0.86643,9.040319 7.0625,12.250006 8.03025,4.15982 19.17878,1.16145 23.96875,-2.500006 11.61676,7.576146 21.21875,-1.5 21.21875,-1.5 0,0 11.09533,10.101536 17.15625,0 16.66752,11.111676 25.75,-0.46875 25.75,-0.46875 0,0 0.7824,5.457376 14.8125,6.406256 14.0301,0.94888 20.71875,-12.656256 20.71875,-12.656256 2.74434,3.48423 4.13991,10.897926 10.90625,11.625006 6.76634,0.72708 13.52714,-3.605916 18.65625,-8.968756 3.81969,7.197816 7.71317,7.759426 12.59375,9.500006 4.88058,1.74058 14.30009,-3.449156 18.28125,-6.187506 5.0763,9.137536 20.01868,8.460296 24.40625,1.65625 0.0614,0.478178 1.18435,1.498951 7.09375,3.468756 2.34189,-1.709596 3.00844,-4.529786 5.8125,-8.343756 -2.52539,-1.01015 -7.625,-3.53125 -7.625,-3.53125 -1.50285,-8.41307 -6.02671,-16.21852 -10.84375,-23.96875 l 5.0625,-11.09375 -10.09375,-3.03125 c -6.22431,13.50459 -11.46678,25.47812 -15.65625,33.4375 -4.18947,7.95937 -19.68829,8.26924 -22.71875,1.375 20.29456,-15.18963 22.54306,-38.57158 5.03125,-36.337881 -16.2066,2.067214 -14.74173,30.537459 -14.74173,30.537459 0,0 -5.9583,5.790272 -14.03952,6.800422 -8.08122,1.01015 2.5625,-36 2.5625,-36 l -11.09375,0 c 0,0 -6.67833,26.361223 -14.6875,35 -7.21864,7.786096 -10.33604,3.141199 -12.3125,2.21875 -2.04681,-0.955285 22.75428,-88.01119579 22.75428,-88.01119579 L 246.46288,0.67814417 231.65625,52.062504 c -8.08122,-0.16396 -17.16878,-1.32579 -25.25,5.875 -10.86008,10.20217 -6.66295,33.061625 -19.21875,28.948445 -4.04061,1.01015 6.84375,-30.760945 6.84375,-30.760945 -0.7389,-5.17228 -16.72934,-7.52701 -24.6875,-2.625 -15.78673,9.72419 -14.34548,29.02315 -17.3125,36.0625 -6.99635,3.234382 -8.93416,1.096535 -11.69844,-6 11.62571,-13.5981 29.7757,-82.0523497 6.54219,-83.06249968 -0.36302,-0.0157837 -0.71224,-0.0182906 -1.0625,0 z m 0.85977,16.33280468 c 0.10733,-0.01509 0.20458,-0.0088 0.3125,0 4.82812,0.392044 -9.60977,46.979695 -9.60977,46.979695 -1.49758,-0.49518 2.5355,-46.029026 9.29727,-46.979695 z m 152.85005,44.935053 c 2.30539,-1.938781 3.98307,-1.532499 4.34375,-0.200894 0.36068,1.331605 -8.70089,13.254465 -8.70089,13.254465 0.0488,-4.483809 2.05176,-11.114791 4.35714,-13.053571 z m -75.25709,2.679795 c 2.8925,-0.08146 4.03617,-0.49733 5.45352,0.583597 l -4.59375,20.34375 c -1.01015,3.07161 -14.70352,5.55644 -16.21875,-1.46875 -1.42074,-6.58708 2.45047,-11.737647 5.26523,-15.271097 2.27284,-2.853163 6.37482,-4.082772 10.09375,-4.1875 z m -45.03046,0.567572 c 0.78656,-0.01563 1.60813,0.114287 2.4375,0.406254 l -5.15625,18.521097 c -2.52538,3.53554 -9.27796,5.057614 -9.92227,-0.09883 -0.83873,-6.712304 5.03761,-18.677462 12.64102,-18.828521 z M 52.875,65.031254 c 1.336266,0.02885 2.53125,0.352677 3.46875,1.15625 5,4.28571 0.58666,19.16438 -4.5,22.5625 -6.11501,4.08512 -18.6875,1.21875 -18.6875,1.21875 l 5,-19.28125 c 0.580361,0 8.928263,-5.781289 14.71875,-5.65625 z m 283.5,9.59375 c 0,0 6.08976,12.98952 5,15 -2.72578,5.02877 -12.31902,-0.07963 -11.78125,-1.78125 l 6.78125,-13.21875 z"
         style="fill:#000000;fill-opacity:1;stroke:none;display:inline"
         inkscape:connector-curvature="0" />
      <path
         sodipodi:nodetypes="csz"
         id="path2915-9"
         d="m 274.98435,27.189734 c 10.91038,-0.37102 10.26934,16.6584 -0.71914,15.50829 -7.8672,-0.82342 -10.19123,-15.13726 0.71914,-15.50829 z"
         style="fill:#000000;fill-opacity:1;stroke:none;display:inline"
         inkscape:connector-curvature="0" />
    </g>
  </g>
  <g
     inkscape:label="script"
     inkscape:groupmode="layer"
     id="layer1"
     transform="translate(-317.84664,514.50548)"
     style="display:inline" />
</svg>
